# Blender 3.4.1
# www.blender.org
mtllib OsierFlippedLowPoly.mtl
o model
v -0.648907 0.498040 -2.543069
v -0.265955 0.229396 -2.542350
v -1.001536 0.263543 -1.959733
v -0.821448 0.486515 -2.175606
v -0.063386 0.328177 -2.141943
v 0.352305 0.382824 -1.230566
v -0.951461 0.128992 -1.098640
v 0.323218 0.057934 -0.976795
v 0.149995 0.156494 -1.128397
v -0.818122 0.453416 -1.171357
v -1.012999 0.374574 -0.857465
v -0.274193 0.242077 -1.133609
v -0.258221 0.878552 -0.911611
v -0.453399 -0.214486 -1.062893
v 0.223208 0.718776 -0.972820
v -0.690401 0.730689 -0.771227
v -0.959338 -0.248068 -0.729891
v 0.302648 0.847926 -0.563787
v 0.535088 0.460408 -0.443820
v -0.144927 -0.452373 -0.639228
v -0.220479 1.048036 -0.333999
v -0.783639 0.773456 -0.188757
v -0.103573 -0.698998 -0.232103
v 0.384706 0.854910 -0.026477
v -1.074725 0.408765 -0.380872
v 0.686120 0.321272 0.051187
v -1.133142 -0.218035 -0.327596
v -0.770484 -0.591311 -0.259621
v 0.427631 -0.197388 -0.384254
v -0.786169 -0.752598 0.159806
v -0.111818 1.109848 0.335734
v 0.547216 -0.383538 0.181864
v -1.213307 -0.263522 0.260251
v -0.732316 0.878113 0.455893
v -1.130830 0.373962 0.148956
v -0.037374 -0.849393 0.160619
v 0.762440 0.159910 0.670840
v 0.476404 0.837030 0.495787
v -0.658767 -0.891208 0.707483
v -1.138236 0.297828 0.707268
v 0.619496 -0.521764 0.784093
v -1.130285 -0.375507 0.729641
v -0.017754 -0.974040 0.656234
v 0.533316 0.727805 1.073223
v -0.706368 0.821095 1.120711
v -1.069837 0.307774 1.234801
v 0.798046 0.021592 1.325008
v -0.002061 1.019185 0.942744
v -0.656549 -1.063061 1.508816
v -1.055086 -0.476387 1.455477
v 0.024776 0.895195 1.690838
v -0.642563 0.767092 1.649163
v 0.085425 -1.065688 1.297101
v 0.566388 0.647319 1.506403
v 0.859113 0.323334 1.657768
v -1.140413 0.136736 1.815711
v 0.706252 -0.692233 1.434160
v 0.261254 -1.088549 1.604856
v 0.251837 -1.083001 1.604801
v 0.111859 -1.012799 1.618873
v 0.132060 -1.001024 1.616814
v 0.249639 -1.073994 1.622849
v 0.125807 -1.003671 1.638320
v 0.179117 -1.092980 1.612702
v -1.051850 -0.518378 1.768665
v 0.904493 -0.239013 1.753728
v 0.398372 0.763946 1.926482
v -1.008861 -0.280546 1.826924
v -1.080477 -0.136685 1.843410
v 0.607535 0.505831 1.879064
v 0.629151 0.436002 1.880210
v 0.628113 0.508634 1.901681
v -1.073531 -0.156027 1.885339
v -0.691181 0.679047 2.057976
vn 0.5063 -0.8614 0.0412
vn -0.5063 0.8614 -0.0412
vn 0.4779 0.8078 -0.3449
vn -0.4779 -0.8078 0.3449
vn -0.7103 -0.2089 0.6722
vn 0.7103 0.2089 -0.6722
vn 0.4751 0.6787 0.5600
vn -0.1977 -0.9725 -0.1233
vn 0.2070 0.9204 -0.3318
vn -0.5396 -0.7683 0.3442
vn -0.6097 -0.2392 -0.7557
vn 0.4208 0.8736 -0.2443
vn -0.8593 0.3604 0.3629
vn 0.8752 -0.3183 -0.3642
vn 0.0034 0.9995 0.0329
vn 0.6083 -0.7922 0.0493
vn -0.6928 0.7053 0.1505
vn -0.9236 0.3831 0.0157
vn 0.4577 0.8875 0.0540
vn 0.6594 -0.7060 -0.2584
vn 0.4973 -0.8627 0.0921
vn 0.9661 0.2577 -0.0159
vn 0.0174 0.1464 0.9891
vn -0.0640 -0.2584 0.9639
vn -0.1885 -0.3192 0.9288
vn 0.6627 -0.2786 0.6951
vn -0.0079 0.1561 0.9877
vn 0.0632 0.1935 0.9791
vn -0.2956 0.6106 0.7347
vn -0.9466 -0.1415 -0.2897
vn 0.4136 -0.8048 0.4257
vn 0.0107 -0.3296 0.9441
vn 0.6854 -0.6824 0.2541
vn 0.3930 0.6387 0.6615
vn 0.9842 0.1128 0.1363
vn -0.3184 0.7086 0.6297
vn 0.1862 0.9084 0.3745
vn -0.2579 -0.9058 0.3361
vn -0.8811 -0.1361 0.4530
vn -0.5178 0.7488 0.4139
vn -0.8563 -0.4210 0.2992
vn -0.9532 0.1779 0.2446
vn -0.2293 -0.9298 0.2878
vn 0.7163 -0.6832 0.1418
vn 0.3825 -0.8930 0.2370
vn 0.9867 0.1096 0.1199
vn 0.4626 -0.8757 0.1384
vn 0.1467 0.8261 0.5441
vn 0.9154 -0.0514 0.3993
vn 0.6743 0.6987 0.2392
vn 0.1171 0.8546 0.5058
vn -0.8676 -0.4775 0.1387
vn 0.7265 -0.6670 0.1653
vn -0.5262 0.7026 0.4790
vn -0.9252 0.1813 0.3333
vn -0.3323 -0.9411 0.0630
vn 0.9915 -0.0840 0.0995
vn -0.8711 -0.4727 0.1329
vn 0.6591 0.6934 0.2913
vn 0.4406 -0.8976 0.0114
vn -0.5830 0.7273 0.3623
vn 0.7706 -0.6361 0.0398
vn -0.3666 -0.9191 0.1443
vn -0.5863 0.7186 0.3740
vn 0.1203 0.9337 0.3373
vn 0.1342 0.9232 0.3600
vn 0.9864 -0.1056 0.1263
vn 0.7597 0.6322 0.1525
vn 0.3677 -0.9221 0.1204
vn 0.7713 -0.6351 0.0417
vn -0.9326 0.2346 0.2742
vn -0.6134 0.7599 0.2154
vn -0.8709 -0.4720 0.1368
vn -0.4303 -0.9016 0.0447
vn 0.1249 0.9684 0.2160
vn -0.9591 0.2216 0.1758
vn 0.1431 0.9611 0.2361
vn -0.9223 -0.3862 0.0130
vn -0.5933 0.7661 0.2471
vn -0.9589 0.2289 0.1676
vn 0.9916 -0.1291 -0.0044
vn 0.8029 -0.5920 -0.0701
vn 0.7553 0.6550 0.0227
vn 0.7380 0.6748 -0.0009
vn -0.4058 -0.9118 -0.0628
vn 0.9849 0.0059 -0.1728
vn 0.3098 -0.9306 -0.1950
vn 0.2479 -0.9644 -0.0924
vn -0.9227 -0.3851 0.0181
vn 0.7996 -0.5949 -0.0822
vn -0.4512 -0.8840 -0.1227
vn -0.9704 0.2200 0.0993
vn -0.9331 -0.3587 -0.0251
vn 0.9917 0.0074 -0.1287
vn 0.1416 0.9680 0.2072
vn -0.5935 0.7778 0.2068
vn 0.8027 -0.5891 -0.0930
vn 0.7383 0.6743 0.0172
vn 0.8163 0.5653 0.1190
vn 0.9945 -0.0107 -0.1045
vn -0.5395 0.7940 0.2802
vn -0.9371 -0.3489 0.0067
vn 0.0420 0.9900 0.1348
vn -0.4493 -0.8838 -0.1304
vn -0.9738 0.1512 0.1696
vn -0.4489 -0.8841 -0.1300
vn 0.7895 -0.5937 -0.1560
vn 0.2386 -0.9627 -0.1272
vn 0.1959 -0.9663 -0.1672
vn -0.5384 0.8107 0.2299
vn -0.9890 0.1361 0.0581
vn 0.0259 0.9966 0.0785
vn -0.7400 -0.4251 0.5213
vn -0.8605 0.0174 0.5091
vn 0.9889 0.0572 0.1370
vn 0.8225 0.5648 0.0672
vn 0.7693 -0.6321 -0.0926
vn -0.7163 -0.6914 -0.0945
vn -0.3856 -0.9172 0.1004
vn -0.6186 -0.1804 -0.7648
vn -0.6282 0.6128 -0.4794
vn 0.1848 0.2022 -0.9618
vn -0.8257 -0.4500 0.3400
vn -0.9881 -0.0974 0.1188
vn 0.1964 -0.9631 -0.1841
vn 0.9219 0.2835 -0.2642
vn 0.9982 0.0604 -0.0022
vn 0.7786 -0.6261 -0.0422
vn 0.8136 -0.4489 0.3695
vn -0.7439 0.4779 -0.4672
vn 0.8853 0.2889 0.3643
vn 0.4635 0.0118 -0.8860
vn -0.9761 -0.2073 0.0661
vn -0.0269 0.2424 -0.9698
vn 0.0078 -0.8683 -0.4960
vn -0.2471 0.3034 -0.9203
vn -0.2139 0.2898 -0.9329
vn -0.1273 0.1057 -0.9862
vn 0.1252 0.0572 -0.9905
vn -0.0090 0.3005 -0.9537
vt 0.037994 0.039954
vt 0.161228 0.376451
vt 0.099415 0.377193
vt 0.071805 0.078569
vt 0.142551 0.017879
vt 0.122829 0.292258
vt 0.022970 0.114745
vt 0.083258 0.339042
vt 0.176131 0.332699
vt 0.077047 0.299849
vt 0.188989 0.384656
vt 0.067068 0.111118
vt 0.132271 0.023658
vt 0.966892 0.908470
vt 0.935233 0.893527
vt 0.168013 0.061748
vt 0.915000 0.820307
vt 0.109138 0.159256
vt 0.117402 0.445828
vt 0.181323 0.097826
vt 0.179505 0.013043
vt 0.336741 0.468366
vt 0.969488 0.791789
vt 0.974855 0.830743
vt 0.871743 0.853640
vt 0.299636 0.433445
vt 0.078992 0.203966
vt 0.180579 0.180552
vt 0.173586 0.403644
vt 0.643628 0.827305
vt 0.146462 0.137579
vt 0.085112 0.458066
vt 0.582490 0.772305
vt 0.220698 0.409989
vt 0.765500 0.852077
vt 0.745551 0.758110
vt 0.797197 0.894412
vt 0.209914 0.455507
vt 0.857121 0.764029
vt 0.661738 0.748021
vt 0.522819 0.752972
vt 0.125670 0.508617
vt 0.852829 0.685389
vt 0.456942 0.517085
vt 0.926924 0.673689
vt 0.257107 0.537053
vt 0.752266 0.650263
vt 0.641298 0.639545
vt 0.263536 0.611173
vt 0.865303 0.585274
vt 0.032277 0.557243
vt 0.567589 0.686502
vt 0.467545 0.595082
vt 0.935403 0.556761
vt 0.515278 0.706711
vt 0.082466 0.573284
vt 0.155402 0.606751
vt 0.967809 0.730936
vt 0.364106 0.558654
vt 0.154230 0.681203
vt 0.757199 0.532079
vt 0.382364 0.668856
vt 0.055508 0.670191
vt 0.493479 0.553019
vt 0.039134 0.694061
vt 0.645194 0.521381
vt 0.014289 0.614590
vt 0.547280 0.589538
vt 0.269226 0.690085
vt 0.480802 0.719536
vt 0.964597 0.435699
vt 0.869177 0.492936
vt 0.169670 0.774946
vt 0.009926 0.738032
vt 0.532842 0.478433
vt 0.397440 0.783050
vt 0.201000 0.194051
vt 0.479627 0.448107
vt 0.064566 0.757443
vt 0.454480 0.412913
vt 0.272885 0.779260
vt 0.281122 0.780841
vt 0.203456 0.339973
vt 0.875069 0.381475
vt 0.638843 0.396553
vt 0.532207 0.376591
vt 0.488918 0.802880
vt 0.205117 0.139137
vt 0.971558 0.317547
vt 0.768089 0.418388
vt 0.213702 0.393909
vt 0.156955 0.898948
vt 0.254129 0.028871
vt 0.358255 0.398462
vt 0.480340 0.031247
vt 0.050183 0.850102
vt 0.450099 0.397800
vt 0.458050 0.311076
vt 0.065304 0.865544
vt 0.297263 0.118766
vt 0.006273 0.571222
vt 0.757914 0.290229
vt 0.636744 0.296891
vt 0.336764 0.833526
vt 0.254454 0.335287
vt 0.866213 0.295562
vt 0.240249 0.121364
vt 0.926474 0.242460
vt 0.357473 0.148351
vt 0.513629 0.258817
vt 0.409147 0.370371
vt 0.990873 0.252949
vt 0.266077 0.215250
vt 0.002216 0.716992
vt 0.992760 0.302295
vt 0.000136 0.717538
vt 0.990201 0.301206
vt 0.996766 0.297841
vt 0.996000 0.304014
vt 0.997591 0.293392
vt 0.995706 0.300997
vt 0.001257 0.720845
vt 0.990614 0.297990
vt 0.995237 0.295658
vt 0.998482 0.302059
vt 0.309069 0.308474
vt 0.102676 0.906686
vt 0.413347 0.394455
vt 0.013175 0.583512
vt 0.008456 0.563547
vt 0.454959 0.165779
vt 0.279441 0.078476
vt 0.988405 0.227408
vt 0.298512 0.148593
vt 0.905688 0.157768
vt 0.820098 0.224051
vt 0.405349 0.391811
vt 0.005743 0.580616
vt 0.356008 0.131526
vt 0.409073 0.378151
vt 0.452588 0.170675
vt 0.463326 0.206215
vt 0.414710 0.389235
vt 0.009808 0.575998
vt 0.405161 0.371742
vt 0.993051 0.256119
vt 0.991614 0.280524
vt 0.992217 0.267364
vt 0.994358 0.272807
vt 0.995745 0.258144
vt 0.996417 0.281749
vt 0.014848 0.577056
vt 0.015190 0.571470
vt 0.404155 0.373505
vt 0.472273 0.219238
vt 0.014934 0.572329
vt 0.405356 0.370641
vt 0.299801 0.014435
vt 0.630907 0.222081
s 0
usemtl model
f 60/118/1 61/120/1 63/124/1
f 60/119/2 63/125/2 61/121/2
f 62/122/3 58/114/3 59/116/3
f 62/123/4 59/117/4 58/115/4
f 71/148/5 72/150/5 70/146/5
f 71/149/6 70/147/6 72/151/6
f 1/2/7 3/6/7 2/3/7
f 5/11/8 4/9/8 1/2/8
f 2/4/9 4/7/9 5/12/9
f 6/16/10 1/1/10 2/4/10
f 3/6/11 4/8/11 2/3/11
f 6/16/12 5/13/12 1/1/12
f 8/20/13 6/16/13 2/4/13
f 2/5/14 5/13/14 8/21/14
f 1/2/15 4/9/15 10/28/15
f 3/6/16 1/2/16 10/28/16
f 4/10/17 3/6/17 7/18/17
f 7/18/18 10/27/18 4/10/18
f 8/23/19 5/14/19 9/24/19
f 6/17/20 9/25/20 5/15/20
f 10/28/21 11/31/21 3/6/21
f 3/6/22 11/31/22 7/18/22
f 9/25/23 12/35/23 14/37/23
f 9/25/24 15/39/24 12/35/24
f 13/36/25 10/30/25 12/35/25
f 6/17/26 15/39/26 9/25/26
f 10/29/27 14/38/27 12/34/27
f 7/19/28 14/38/28 10/29/28
f 9/26/29 14/38/29 8/22/29
f 8/23/30 15/39/30 6/17/30
f 13/36/31 16/40/31 10/30/31
f 13/36/32 12/35/32 15/39/32
f 16/40/33 11/33/33 10/30/33
f 14/38/34 7/19/34 17/42/34
f 17/42/35 7/19/35 11/32/35
f 14/38/36 20/46/36 8/22/36
f 17/42/37 20/46/37 14/38/37
f 13/36/38 15/39/38 18/43/38
f 19/45/39 15/39/39 8/23/39
f 20/46/40 29/59/40 8/22/40
f 19/45/41 18/43/41 15/39/41
f 8/23/42 29/58/42 19/45/42
f 18/43/43 21/47/43 13/36/43
f 25/52/44 11/33/44 16/40/44
f 13/36/45 21/47/45 16/40/45
f 11/33/46 25/52/46 17/41/46
f 22/48/47 16/40/47 21/47/47
f 20/46/48 17/42/48 28/57/48
f 27/55/49 17/41/49 25/52/49
f 27/56/50 28/57/50 17/42/50
f 28/57/51 23/49/51 20/46/51
f 24/50/52 18/43/52 19/45/52
f 22/48/53 25/52/53 16/40/53
f 23/49/54 29/59/54 20/46/54
f 29/59/55 26/53/55 19/44/55
f 21/47/56 18/43/56 24/50/56
f 25/51/57 35/67/57 27/56/57
f 19/45/58 26/54/58 24/50/58
f 28/57/59 27/56/59 30/60/59
f 22/48/60 21/47/60 31/61/60
f 23/49/61 32/62/61 29/59/61
f 22/48/62 35/68/62 25/52/62
f 31/61/63 21/47/63 24/50/63
f 36/69/64 32/62/64 23/49/64
f 36/69/65 23/49/65 30/60/65
f 30/60/66 23/49/66 28/57/66
f 35/67/67 33/63/67 27/56/67
f 33/63/68 30/60/68 27/56/68
f 31/61/69 34/66/69 22/48/69
f 22/48/70 34/66/70 35/68/70
f 29/59/71 32/62/71 26/53/71
f 36/69/72 43/81/72 32/62/72
f 26/54/73 38/72/73 24/50/73
f 24/50/74 38/72/74 31/61/74
f 39/73/75 36/69/75 30/60/75
f 32/62/76 37/70/76 26/53/76
f 39/73/77 43/81/77 36/69/77
f 37/71/78 38/72/78 26/54/78
f 43/81/79 41/76/79 32/62/79
f 32/62/80 41/76/80 37/70/80
f 35/68/81 40/75/81 33/64/81
f 35/68/82 34/66/82 40/75/82
f 33/65/83 42/79/83 30/60/83
f 30/60/84 42/79/84 39/73/84
f 31/61/85 38/72/85 48/90/85
f 33/65/86 40/74/86 42/79/86
f 48/90/87 34/66/87 31/61/87
f 48/90/88 45/85/88 34/66/88
f 37/71/89 44/84/89 38/72/89
f 34/66/90 45/85/90 40/75/90
f 44/84/91 48/90/91 38/72/91
f 41/76/92 47/87/92 37/70/92
f 37/71/93 47/89/93 44/84/93
f 40/75/94 46/86/94 42/78/94
f 39/73/95 49/92/95 43/81/95
f 43/82/96 53/104/96 41/76/96
f 45/85/97 46/86/97 40/75/97
f 50/96/98 39/73/98 42/79/98
f 50/96/99 49/92/99 39/73/99
f 42/80/100 46/86/100 50/97/100
f 57/113/101 41/77/101 53/105/101
f 54/106/102 44/84/102 47/89/102
f 53/105/103 43/83/103 49/91/103
f 44/84/104 51/102/104 48/90/104
f 57/113/105 47/88/105 41/77/105
f 44/84/106 54/106/106 51/102/106
f 45/85/107 52/103/107 46/86/107
f 48/90/108 52/103/108 45/85/108
f 48/90/109 51/102/109 52/103/109
f 64/126/110 57/113/110 53/105/110
f 55/107/111 47/88/111 57/113/111
f 49/94/112 64/126/112 53/105/112
f 47/89/113 55/108/113 54/106/113
f 57/112/114 66/133/114 55/108/114
f 46/86/115 56/110/115 50/98/115
f 49/92/116 50/99/116 65/127/116
f 52/103/117 56/110/117 46/86/117
f 55/108/118 67/136/118 54/106/118
f 54/106/119 67/136/119 51/102/119
f 55/108/120 66/135/120 67/136/120
f 64/126/121 66/134/121 57/113/121
f 65/128/122 69/143/122 68/137/122
f 68/138/123 69/144/123 50/101/123
f 65/129/124 73/152/124 69/144/124
f 52/103/125 51/102/125 74/159/125
f 50/100/126 56/109/126 68/139/126
f 50/101/127 73/153/127 65/130/127
f 52/103/128 74/159/128 56/110/128
f 73/153/129 50/101/129 74/156/129
f 50/101/130 69/144/130 74/156/130
f 68/140/131 56/111/131 73/154/131
f 74/157/132 69/145/132 56/111/132
f 69/145/133 73/154/133 56/111/133
f 68/141/134 74/159/134 65/131/134
f 74/159/135 51/102/135 67/136/135
f 68/142/136 73/155/136 74/159/136
f 74/158/137 49/93/137 65/132/137
f 74/159/138 67/136/138 66/135/138
f 49/94/139 66/134/139 64/126/139
f 74/159/140 66/135/140 49/95/140
