# Blender v2.93.1 OBJ File: 'baby_table.blend'
# www.blender.org
mtllib baby_table.mtl
o Plane
v -2.000000 1.000000 1.000000
v 2.000000 1.000000 1.000000
v -2.000000 1.000000 -1.000000
v 2.000000 1.000000 -1.000000
v -2.000000 1.000000 -0.706583
v -1.702796 1.000000 -1.000000
v -1.702796 1.000000 -0.706582
v -1.698602 1.000000 1.000000
v -2.000000 1.000000 0.702508
v -1.698602 1.000000 0.702508
v 2.000000 1.000000 -0.698314
v 1.698602 1.000000 -1.000000
v 1.694408 1.000000 -0.698314
v 2.000000 1.000000 0.706702
v 1.694408 1.000000 1.000000
v 1.694407 1.000000 0.706702
v -2.000000 -1.000000 0.702508
v -2.000000 -1.000000 1.000000
v 1.694408 -1.000000 1.000000
v 2.000000 -1.000000 1.000000
v 2.000000 -1.000000 -0.698314
v 2.000000 -1.000000 -1.000000
v -1.702796 -1.000000 -1.000000
v -2.000000 -1.000000 -1.000000
v -2.000000 -1.000000 -0.706583
v -1.702796 -1.000000 -0.706582
v -1.698602 -1.000000 1.000000
v -1.698602 -1.000000 0.702508
v 1.698602 -1.000000 -1.000000
v 1.694408 -1.000000 -0.698314
v 2.000000 -1.000000 0.706702
v 1.694407 -1.000000 0.706702
v 1.698602 0.850000 -1.000000
v -1.702796 0.850000 -1.000000
v -1.702796 0.850000 -0.706582
v -2.000000 0.850000 -0.706583
v -2.000000 0.850000 0.702508
v -1.698602 0.850000 0.702508
v -1.698602 0.850000 1.000000
v 2.000000 0.850000 0.706702
v 2.000000 0.850000 -0.698314
v 1.694408 0.850000 -0.698314
v 1.694408 0.850000 1.000000
v 1.694407 0.850000 0.706702
vt 0.000000 0.000000
vt 0.000000 0.000000
vt 0.000000 0.000000
vt 0.000000 0.000000
vt 0.000000 0.000000
vt 0.000000 0.000000
vt 0.000000 0.000000
vt 0.000000 0.000000
vt 0.074301 1.000000
vt 0.074301 0.853291
vt 0.074301 0.853291
vt 0.074301 1.000000
vt 0.923602 0.849157
vt 1.000000 0.849157
vt 1.000000 0.849157
vt 0.923602 0.849157
vt 0.000000 0.000000
vt 0.000000 0.000000
vt 0.075349 0.000000
vt 0.075349 0.148746
vt 0.000000 0.148746
vt 0.000000 0.853291
vt 0.074301 0.853291
vt 0.074301 1.000000
vt 0.000000 1.000000
vt 0.924650 1.000000
vt 1.000000 1.000000
vt 1.000000 0.146649
vt 0.923602 0.146649
vt 0.923602 0.000000
vt 1.000000 0.000000
vt 0.000000 0.000000
vt 0.000000 0.000000
vt 0.000000 0.000000
vt 0.000000 0.000000
vt 0.000000 0.000000
vt 0.000000 0.000000
vt 0.075349 0.148746
vt 0.000000 0.148746
vt 0.000000 0.000000
vt 0.000000 0.000000
vt 0.000000 0.000000
vt 0.000000 0.000000
vt 1.000000 0.146649
vt 0.923602 0.146649
vt 0.075349 0.000000
vt 0.000000 0.000000
vt 0.000000 0.000000
vt 0.923602 0.000000
vt 0.000000 0.000000
vt 0.000000 0.000000
vt 0.924650 1.000000
vt 0.000000 0.853291
vt 0.000000 0.148746
vt 0.075349 0.148746
vt 0.075349 0.000000
vt 0.923602 0.000000
vt 0.923602 0.146649
vt 1.000000 0.146649
vt 1.000000 0.849157
vt 0.923602 0.849157
vt 0.924650 1.000000
vt 0.000000 0.853291
vt 0.000000 0.000000
vt 0.000000 0.000000
vt 0.000000 0.000000
vt 0.000000 0.000000
vt 0.000000 0.000000
vt 0.000000 0.000000
vt 0.000000 0.000000
vt 0.000000 0.000000
vn 0.0000 0.0000 -1.0000
vn 1.0000 0.0000 0.0000
vn 0.0000 1.0000 0.0000
vn -1.0000 0.0000 0.0000
vn 0.0000 0.0000 1.0000
vn 0.9999 0.0000 0.0139
vn -0.9999 0.0000 -0.0139
vn 0.0000 -1.0000 0.0000
usemtl None
s off
f 15/1/1 2/2/1 20/3/1 19/4/1
f 1/5/1 8/6/1 27/7/1 18/8/1
f 6/9/2 7/10/2 35/11/2 34/12/2
f 13/13/1 11/14/1 21/15/1 30/16/1
f 9/17/2 1/5/2 18/8/2 17/18/2
f 18/8/3 27/19/3 28/20/3 17/21/3
f 25/22/3 26/23/3 23/24/3 24/25/3
f 29/26/3 30/16/3 21/15/3 22/27/3
f 31/28/3 32/29/3 19/30/3 20/31/3
f 2/2/4 14/32/4 31/33/4 20/3/4
f 11/34/4 4/35/4 22/36/4 21/37/4
f 10/38/5 9/39/5 17/21/5 28/20/5
f 6/40/5 3/41/5 24/42/5 23/43/5
f 14/44/5 16/45/5 32/29/5 31/28/5
f 8/46/4 10/38/4 28/20/4 27/19/4
f 3/41/2 5/47/2 25/48/2 24/42/2
f 16/45/2 15/49/2 19/30/2 32/29/2
f 4/35/5 12/50/5 29/51/5 22/36/5
f 7/10/4 6/9/4 23/24/4 26/23/4
f 12/52/6 13/13/6 30/16/6 29/26/6
f 5/53/1 7/10/1 26/23/1 25/22/1
f 37/54/3 38/55/3 39/56/3 43/57/3 44/58/3 40/59/3 41/60/3 42/61/3 33/62/3 34/12/3 35/11/3 36/63/3
f 9/39/1 10/38/1 38/55/1 37/54/1
f 8/6/1 15/1/1 43/64/1 39/65/1
f 7/10/5 5/53/5 36/63/5 35/11/5
f 13/13/7 12/52/7 33/62/7 42/61/7
f 10/38/2 8/46/2 39/56/2 38/55/2
f 16/45/1 14/44/1 40/59/1 44/58/1
f 11/14/5 13/13/5 42/61/5 41/60/5
f 12/50/5 6/40/5 34/66/5 33/67/5
f 14/32/4 11/34/4 41/68/4 40/69/4
f 15/49/4 16/45/4 44/58/4 43/57/4
f 5/47/2 9/17/2 37/70/2 36/71/2
f 2/2/8 1/5/8 3/41/8 4/35/8
