# Blender v3.0.0 OBJ File: 'container.blend'
# www.blender.org
mtllib container.mtl
o Circle_Circle.001
v 0.000000 0.000000 -1.000000
v -0.195090 0.000000 -0.980785
v -0.382683 0.000000 -0.923880
v -0.555570 0.000000 -0.831470
v -0.707107 0.000000 -0.707107
v -0.831470 0.000000 -0.555570
v -0.923880 0.000000 -0.382683
v -0.980785 0.000000 -0.195090
v -1.000000 0.000000 0.000000
v -0.980785 0.000000 0.195090
v -0.923880 0.000000 0.382683
v -0.831470 0.000000 0.555570
v -0.707107 0.000000 0.707107
v -0.555570 0.000000 0.831470
v -0.382683 0.000000 0.923880
v -0.195090 0.000000 0.980785
v 0.000000 0.000000 1.000000
v 0.195090 0.000000 0.980785
v 0.382683 0.000000 0.923880
v 0.555570 0.000000 0.831470
v 0.707107 0.000000 0.707107
v 0.831469 0.000000 0.555570
v 0.923880 0.000000 0.382684
v 0.980785 0.000000 0.195090
v 1.000000 0.000000 -0.000000
v 0.980785 0.000000 -0.195090
v 0.923879 0.000000 -0.382684
v 0.831470 0.000000 -0.555570
v 0.707107 0.000000 -0.707107
v 0.555570 0.000000 -0.831470
v 0.382683 0.000000 -0.923880
v 0.195090 0.000000 -0.980785
v -0.175581 0.000000 -0.882707
v -0.000000 0.000000 -0.900000
v -0.344415 0.000000 -0.831492
v -0.500013 0.000000 -0.748323
v -0.636396 0.000000 -0.636396
v -0.748323 0.000000 -0.500013
v -0.831492 0.000000 -0.344415
v -0.882707 0.000000 -0.175581
v -0.900000 0.000000 0.000000
v -0.882707 0.000000 0.175581
v -0.831492 0.000000 0.344415
v -0.748323 0.000000 0.500013
v -0.636396 0.000000 0.636396
v -0.500013 0.000000 0.748323
v -0.344415 0.000000 0.831492
v -0.175581 0.000000 0.882707
v 0.000000 0.000000 0.900000
v 0.175581 0.000000 0.882707
v 0.344415 0.000000 0.831492
v 0.500013 0.000000 0.748323
v 0.636396 0.000000 0.636396
v 0.748322 0.000000 0.500013
v 0.831492 0.000000 0.344415
v 0.882707 0.000000 0.175581
v 0.900000 0.000000 -0.000000
v 0.882707 0.000000 -0.175581
v 0.831491 0.000000 -0.344415
v 0.748323 0.000000 -0.500013
v 0.636396 0.000000 -0.636396
v 0.500013 0.000000 -0.748323
v 0.344415 0.000000 -0.831492
v 0.175581 0.000000 -0.882707
v -0.234108 1.500000 -1.176942
v 0.000000 1.500000 -1.200000
v -0.459220 1.500000 -1.108655
v -0.666684 1.500000 -0.997764
v -0.848528 1.500000 -0.848528
v -0.997764 1.500000 -0.666684
v -1.108655 1.500000 -0.459220
v -1.176942 1.500000 -0.234108
v -1.200000 1.500000 0.000000
v -1.176942 1.500000 0.234108
v -1.108656 1.500000 0.459220
v -0.997764 1.500000 0.666684
v -0.848528 1.500000 0.848528
v -0.666684 1.500000 0.997764
v -0.459220 1.500000 1.108655
v -0.234108 1.500000 1.176942
v 0.000000 1.500000 1.200000
v 0.234108 1.500000 1.176942
v 0.459220 1.500000 1.108655
v 0.666684 1.500000 0.997763
v 0.848528 1.500000 0.848528
v 0.997763 1.500000 0.666685
v 1.108655 1.500000 0.459220
v 1.176942 1.500000 0.234108
v 1.200000 1.500000 -0.000000
v 1.176942 1.500000 -0.234109
v 1.108655 1.500000 -0.459220
v 0.997764 1.500000 -0.666684
v 0.848528 1.500000 -0.848528
v 0.666684 1.500000 -0.997764
v 0.459220 1.500000 -1.108656
v 0.234108 1.500000 -1.176942
v -0.210698 1.500000 -1.059248
v -0.000000 1.500000 -1.080000
v -0.413298 1.500000 -0.997790
v -0.600016 1.500000 -0.897987
v -0.763675 1.500000 -0.763675
v -0.897987 1.500000 -0.600016
v -0.997790 1.500000 -0.413298
v -1.059248 1.500000 -0.210698
v -1.080000 1.500000 0.000000
v -1.059248 1.500000 0.210698
v -0.997790 1.500000 0.413298
v -0.897987 1.500000 0.600016
v -0.763675 1.500000 0.763675
v -0.600016 1.500000 0.897987
v -0.413298 1.500000 0.997790
v -0.210698 1.500000 1.059248
v 0.000000 1.500000 1.080000
v 0.210697 1.500000 1.059248
v 0.413298 1.500000 0.997790
v 0.600016 1.500000 0.897987
v 0.763675 1.500000 0.763675
v 0.897987 1.500000 0.600016
v 0.997790 1.500000 0.413298
v 1.059248 1.500000 0.210698
v 1.080000 1.500000 -0.000000
v 1.059248 1.500000 -0.210698
v 0.997790 1.500000 -0.413298
v 0.897987 1.500000 -0.600016
v 0.763675 1.500000 -0.763675
v 0.600016 1.500000 -0.897987
v 0.413298 1.500000 -0.997790
v 0.210697 1.500000 -1.059248
v 0.000000 1.500000 1.140000
v -0.210698 2.100000 1.059248
v 0.210697 2.100000 1.059248
v 0.000000 2.100000 1.140000
v 0.000000 1.500000 -1.140000
v -0.210698 2.100000 -1.059248
v 0.210697 2.100000 -1.059248
v 0.000000 2.100000 -1.140000
v 0.000000 2.050000 -1.050000
v 0.000000 2.050000 1.050000
v 0.019509 2.048079 -1.050000
v 0.019509 2.048079 1.050000
v 0.038268 2.042388 -1.050000
v 0.038268 2.042388 1.050000
v 0.055557 2.033147 -1.050000
v 0.055557 2.033147 1.050000
v 0.070711 2.020711 -1.050000
v 0.070711 2.020711 1.050000
v 0.083147 2.005557 -1.050000
v 0.083147 2.005557 1.050000
v 0.092388 1.988268 -1.050000
v 0.092388 1.988268 1.050000
v 0.098079 1.969509 -1.050000
v 0.098079 1.969509 1.050000
v 0.100000 1.950000 -1.050000
v 0.100000 1.950000 1.050000
v 0.098079 1.930491 -1.050000
v 0.098079 1.930491 1.050000
v 0.092388 1.911732 -1.050000
v 0.092388 1.911732 1.050000
v 0.083147 1.894443 -1.050000
v 0.083147 1.894443 1.050000
v 0.070711 1.879289 -1.050000
v 0.070711 1.879289 1.050000
v 0.055557 1.866853 -1.050000
v 0.055557 1.866853 1.050000
v 0.038268 1.857612 -1.050000
v 0.038268 1.857612 1.050000
v 0.019509 1.851922 -1.050000
v 0.019509 1.851921 1.050000
v -0.000000 1.850000 -1.050000
v -0.000000 1.850000 1.050000
v -0.019509 1.851922 -1.050000
v -0.019509 1.851921 1.050000
v -0.038268 1.857612 -1.050000
v -0.038268 1.857612 1.050000
v -0.055557 1.866853 -1.050000
v -0.055557 1.866853 1.050000
v -0.070711 1.879289 -1.050000
v -0.070711 1.879289 1.050000
v -0.083147 1.894443 -1.050000
v -0.083147 1.894443 1.050000
v -0.092388 1.911732 -1.050000
v -0.092388 1.911732 1.050000
v -0.098079 1.930491 -1.050000
v -0.098079 1.930491 1.050000
v -0.100000 1.950000 -1.050000
v -0.100000 1.950000 1.050000
v -0.098079 1.969509 -1.050000
v -0.098079 1.969509 1.050000
v -0.092388 1.988268 -1.050000
v -0.092388 1.988268 1.050000
v -0.083147 2.005557 -1.050000
v -0.083147 2.005557 1.050000
v -0.070711 2.020711 -1.050000
v -0.070711 2.020711 1.050000
v -0.055557 2.033147 -1.050000
v -0.055557 2.033147 1.050000
v -0.038268 2.042388 -1.050000
v -0.038268 2.042388 1.050000
v -0.019509 2.048079 -1.050000
v -0.019509 2.048079 1.050000
vt 0.000000 0.000000
vt 0.000000 0.000000
vt 0.000000 0.000000
vt 0.000000 0.000000
vt 0.000000 0.000000
vt 0.000000 0.000000
vt 0.000000 0.000000
vt 0.000000 0.000000
vt 0.000000 0.000000
vt 0.000000 0.000000
vt 0.000000 0.000000
vt 0.000000 0.000000
vt 0.000000 0.000000
vt 0.000000 0.000000
vt 0.000000 0.000000
vt 0.000000 0.000000
vt 0.000000 0.000000
vt 0.000000 0.000000
vt 0.000000 0.000000
vt 0.000000 0.000000
vt 0.000000 0.000000
vt 0.000000 0.000000
vt 0.000000 0.000000
vt 0.000000 0.000000
vt 0.000000 0.000000
vt 0.000000 0.000000
vt 0.000000 0.000000
vt 0.000000 0.000000
vt 0.000000 0.000000
vt 0.000000 0.000000
vt 0.000000 0.000000
vt 0.000000 0.000000
vt 0.000000 0.000000
vt 0.000000 0.000000
vt 0.000000 0.000000
vt 0.000000 0.000000
vt 0.000000 0.000000
vt 0.000000 0.000000
vt 0.000000 0.000000
vt 0.000000 0.000000
vt 0.000000 0.000000
vt 0.000000 0.000000
vt 0.000000 0.000000
vt 0.000000 0.000000
vt 0.000000 0.000000
vt 0.000000 0.000000
vt 0.000000 0.000000
vt 0.000000 0.000000
vt 0.000000 0.000000
vt 0.000000 0.000000
vt 0.000000 0.000000
vt 0.000000 0.000000
vt 0.000000 0.000000
vt 0.000000 0.000000
vt 0.000000 0.000000
vt 0.000000 0.000000
vt 0.000000 0.000000
vt 0.000000 0.000000
vt 0.000000 0.000000
vt 0.000000 0.000000
vt 0.000000 0.000000
vt 0.000000 0.000000
vt 0.000000 0.000000
vt 0.000000 0.000000
vt 0.000000 0.000000
vt 0.000000 0.000000
vt 0.000000 0.000000
vt 0.000000 0.000000
vt 0.000000 0.000000
vt 0.000000 0.000000
vt 0.000000 0.000000
vt 0.000000 0.000000
vt 0.000000 0.000000
vt 0.000000 0.000000
vt 0.000000 0.000000
vt 0.000000 0.000000
vt 0.000000 0.000000
vt 0.000000 0.000000
vt 0.000000 0.000000
vt 0.000000 0.000000
vt 0.000000 0.000000
vt 0.000000 0.000000
vt 0.000000 0.000000
vt 0.000000 0.000000
vt 0.000000 0.000000
vt 0.000000 0.000000
vt 0.000000 0.000000
vt 0.000000 0.000000
vt 0.000000 0.000000
vt 0.000000 0.000000
vt 0.000000 0.000000
vt 0.000000 0.000000
vt 0.000000 0.000000
vt 0.000000 0.000000
vt 0.000000 0.000000
vt 0.000000 0.000000
vt 0.000000 0.000000
vt 0.000000 0.000000
vt 0.000000 0.000000
vt 0.000000 0.000000
vt 0.000000 0.000000
vt 0.000000 0.000000
vt 0.000000 0.000000
vt 0.000000 0.000000
vt 0.000000 0.000000
vt 0.000000 0.000000
vt 0.000000 0.000000
vt 0.000000 0.000000
vt 0.000000 0.000000
vt 0.000000 0.000000
vt 0.000000 0.000000
vt 0.000000 0.000000
vt 0.000000 0.000000
vt 0.000000 0.000000
vt 0.000000 0.000000
vt 0.000000 0.000000
vt 0.000000 0.000000
vt 0.000000 0.000000
vt 0.000000 0.000000
vt 0.000000 0.000000
vt 0.000000 0.000000
vt 0.000000 0.000000
vt 0.000000 0.000000
vt 0.000000 0.000000
vt 0.000000 0.000000
vt 0.000000 0.000000
vt 0.000000 0.000000
vt 0.000000 0.000000
vt 0.000000 0.000000
vt 0.000000 0.000000
vt 0.000000 0.000000
vt 0.000000 0.000000
vt 0.000000 0.000000
vt 0.000000 0.000000
vt 0.000000 0.000000
vt 0.000000 0.000000
vt 1.000000 0.500000
vt 1.000000 1.000000
vt 0.968750 1.000000
vt 0.968750 0.500000
vt 0.937500 1.000000
vt 0.937500 0.500000
vt 0.906250 1.000000
vt 0.906250 0.500000
vt 0.875000 1.000000
vt 0.875000 0.500000
vt 0.843750 1.000000
vt 0.843750 0.500000
vt 0.812500 1.000000
vt 0.812500 0.500000
vt 0.781250 1.000000
vt 0.781250 0.500000
vt 0.750000 1.000000
vt 0.750000 0.500000
vt 0.718750 1.000000
vt 0.718750 0.500000
vt 0.687500 1.000000
vt 0.687500 0.500000
vt 0.656250 1.000000
vt 0.656250 0.500000
vt 0.625000 1.000000
vt 0.625000 0.500000
vt 0.593750 1.000000
vt 0.593750 0.500000
vt 0.562500 1.000000
vt 0.562500 0.500000
vt 0.531250 1.000000
vt 0.531250 0.500000
vt 0.500000 1.000000
vt 0.500000 0.500000
vt 0.468750 1.000000
vt 0.468750 0.500000
vt 0.437500 1.000000
vt 0.437500 0.500000
vt 0.406250 1.000000
vt 0.406250 0.500000
vt 0.375000 1.000000
vt 0.375000 0.500000
vt 0.343750 1.000000
vt 0.343750 0.500000
vt 0.312500 1.000000
vt 0.312500 0.500000
vt 0.281250 1.000000
vt 0.281250 0.500000
vt 0.250000 1.000000
vt 0.250000 0.500000
vt 0.218750 1.000000
vt 0.218750 0.500000
vt 0.187500 1.000000
vt 0.187500 0.500000
vt 0.156250 1.000000
vt 0.156250 0.500000
vt 0.125000 1.000000
vt 0.125000 0.500000
vt 0.093750 1.000000
vt 0.093750 0.500000
vt 0.062500 1.000000
vt 0.062500 0.500000
vt 0.296822 0.485388
vt 0.250000 0.490000
vt 0.203178 0.485388
vt 0.158156 0.471731
vt 0.116663 0.449552
vt 0.080294 0.419706
vt 0.050447 0.383337
vt 0.028269 0.341844
vt 0.014612 0.296822
vt 0.010000 0.250000
vt 0.014612 0.203178
vt 0.028269 0.158156
vt 0.050447 0.116663
vt 0.080294 0.080294
vt 0.116663 0.050447
vt 0.158156 0.028269
vt 0.203178 0.014611
vt 0.250000 0.010000
vt 0.296822 0.014611
vt 0.341844 0.028269
vt 0.383337 0.050447
vt 0.419706 0.080294
vt 0.449553 0.116663
vt 0.471731 0.158156
vt 0.485388 0.203178
vt 0.490000 0.250000
vt 0.485388 0.296822
vt 0.471731 0.341844
vt 0.449553 0.383337
vt 0.419706 0.419706
vt 0.383337 0.449552
vt 0.341844 0.471731
vt 0.031250 1.000000
vt 0.031250 0.500000
vt 0.000000 1.000000
vt 0.000000 0.500000
vt 0.750000 0.490000
vt 0.796822 0.485388
vt 0.841844 0.471731
vt 0.883337 0.449553
vt 0.919706 0.419706
vt 0.949553 0.383337
vt 0.971731 0.341844
vt 0.985388 0.296822
vt 0.990000 0.250000
vt 0.985388 0.203178
vt 0.971731 0.158156
vt 0.949553 0.116663
vt 0.919706 0.080294
vt 0.883337 0.050447
vt 0.841844 0.028269
vt 0.796822 0.014612
vt 0.750000 0.010000
vt 0.703178 0.014612
vt 0.658156 0.028269
vt 0.616663 0.050447
vt 0.580294 0.080294
vt 0.550447 0.116663
vt 0.528269 0.158156
vt 0.514612 0.203178
vt 0.510000 0.250000
vt 0.514612 0.296822
vt 0.528269 0.341844
vt 0.550447 0.383337
vt 0.580294 0.419706
vt 0.616663 0.449553
vt 0.658156 0.471731
vt 0.703178 0.485388
vn 0.0000 -1.0000 0.0000
vn 0.0000 1.0000 0.0000
vn -0.8743 -0.1315 0.4673
vn 0.7676 0.1186 0.6299
vn -0.2882 0.1186 0.9502
vn -0.9486 -0.1315 0.2878
vn 0.6299 0.1186 0.7676
vn -0.4681 0.1186 0.8757
vn -0.9865 -0.1315 0.0972
vn 0.4681 0.1186 0.8757
vn -0.6299 0.1186 0.7676
vn -0.9865 -0.1315 -0.0972
vn 0.2882 0.1186 0.9502
vn -0.7676 0.1186 0.6299
vn -0.9486 -0.1315 -0.2878
vn 0.0973 0.1186 0.9882
vn -0.8757 0.1186 0.4681
vn -0.8743 -0.1315 -0.4673
vn 0.0972 -0.1315 -0.9865
vn -0.9502 0.1186 0.2882
vn -0.7663 -0.1315 -0.6289
vn 0.2878 -0.1315 -0.9486
vn -0.9882 0.1186 0.0973
vn -0.6289 -0.1315 -0.7663
vn 0.4673 -0.1315 -0.8743
vn -0.9882 0.1186 -0.0973
vn -0.4673 -0.1315 -0.8743
vn 0.6289 -0.1315 -0.7663
vn -0.9502 0.1186 -0.2882
vn -0.2878 -0.1315 -0.9486
vn 0.7663 -0.1315 -0.6289
vn -0.8757 0.1186 -0.4681
vn -0.0972 -0.1315 -0.9865
vn 0.8743 -0.1315 -0.4673
vn -0.0973 0.1186 0.9882
vn 0.8757 0.1186 0.4681
vn -0.7663 -0.1315 0.6289
vn 0.9502 0.1186 0.2882
vn -0.6289 -0.1315 0.7663
vn 0.9882 0.1186 0.0973
vn -0.4673 -0.1315 0.8743
vn 0.9882 0.1186 -0.0973
vn -0.2878 -0.1315 0.9486
vn 0.9502 0.1186 -0.2882
vn -0.0972 -0.1315 0.9865
vn 0.8757 0.1186 -0.4681
vn 0.0972 -0.1315 0.9865
vn 0.7676 0.1186 -0.6299
vn 0.2878 -0.1315 0.9486
vn 0.6299 0.1186 -0.7676
vn 0.4673 -0.1315 0.8743
vn 0.4681 0.1186 -0.8757
vn 0.6289 -0.1315 0.7663
vn 0.2882 0.1186 -0.9502
vn 0.7663 -0.1315 0.6289
vn 0.0973 0.1186 -0.9882
vn 0.8743 -0.1315 0.4673
vn -0.0973 0.1186 -0.9882
vn 0.9486 -0.1315 0.2878
vn -0.2882 0.1186 -0.9502
vn 0.9865 -0.1315 0.0972
vn -0.4681 0.1186 -0.8757
vn 0.9865 -0.1315 -0.0972
vn -0.6299 0.1186 -0.7676
vn 0.9486 -0.1315 -0.2878
vn -0.7676 0.1186 -0.6299
vn 0.3579 0.0000 0.9338
vn -0.3579 0.0000 0.9338
vn 0.0000 0.0000 -1.0000
vn 0.3579 0.0000 -0.9338
vn 0.0000 0.0000 1.0000
vn -0.3579 0.0000 -0.9338
vn 0.0980 0.9952 0.0000
vn 0.2903 0.9569 0.0000
vn 0.4714 0.8819 0.0000
vn 0.6344 0.7730 0.0000
vn 0.7730 0.6344 0.0000
vn 0.8819 0.4714 0.0000
vn 0.9569 0.2903 0.0000
vn 0.9952 0.0980 0.0000
vn 0.9952 -0.0980 -0.0000
vn 0.9569 -0.2903 0.0000
vn 0.8819 -0.4714 0.0000
vn 0.7730 -0.6344 -0.0000
vn 0.6344 -0.7730 0.0000
vn 0.4714 -0.8819 -0.0000
vn 0.2903 -0.9569 0.0000
vn 0.0980 -0.9952 0.0000
vn -0.0980 -0.9952 0.0000
vn -0.2903 -0.9569 0.0000
vn -0.4714 -0.8819 -0.0000
vn -0.6344 -0.7730 0.0000
vn -0.7730 -0.6344 0.0000
vn -0.8819 -0.4714 -0.0000
vn -0.9569 -0.2903 0.0000
vn -0.9952 -0.0980 -0.0000
vn -0.9952 0.0980 0.0000
vn -0.9569 0.2903 0.0000
vn -0.8819 0.4714 0.0000
vn -0.7730 0.6344 0.0000
vn -0.6344 0.7730 0.0000
vn -0.4714 0.8819 0.0000
vn -0.2903 0.9569 0.0000
vn -0.0980 0.9952 0.0000
usemtl None
s off
f 2/1/1 1/2/1 32/3/1 31/4/1 30/5/1 29/6/1 28/7/1 27/8/1 26/9/1 25/10/1 24/11/1 23/12/1 22/13/1 21/14/1 20/15/1 19/16/1 18/17/1 17/18/1 16/19/1 15/20/1 14/21/1 13/22/1 12/23/1 11/24/1 10/25/1 9/26/1 8/27/1 7/28/1 6/29/1 5/30/1 4/31/1 3/32/1
f 33/33/2 35/34/2 36/35/2 37/36/2 38/37/2 39/38/2 40/39/2 41/40/2 42/41/2 43/42/2 44/43/2 45/44/2 46/45/2 47/46/2 48/47/2 49/48/2 50/49/2 51/50/2 52/51/2 53/52/2 54/53/2 55/54/2 56/55/2 57/56/2 58/57/2 59/58/2 60/59/2 61/60/2 62/61/2 63/62/2 64/63/2 34/64/2
f 11/24/3 12/23/3 76/65/3 75/66/3
f 38/37/4 37/36/4 101/67/4 102/68/4
f 64/63/5 63/62/5 127/69/5 128/70/5
f 10/25/6 11/24/6 75/66/6 74/71/6
f 37/36/7 36/35/7 100/72/7 101/67/7
f 63/62/8 62/61/8 126/73/8 127/69/8
f 9/26/9 10/25/9 74/71/9 73/74/9
f 36/35/10 35/34/10 99/75/10 100/72/10
f 62/61/11 61/60/11 125/76/11 126/73/11
f 8/27/12 9/26/12 73/74/12 72/77/12
f 35/34/13 33/33/13 97/78/13 99/75/13
f 61/60/14 60/59/14 124/79/14 125/76/14
f 7/28/15 8/27/15 72/77/15 71/80/15
f 33/33/16 34/64/16 98/81/16 97/78/16
f 60/59/17 59/58/17 123/82/17 124/79/17
f 6/29/18 7/28/18 71/80/18 70/83/18
f 32/3/19 1/2/19 66/84/19 96/85/19
f 59/58/20 58/57/20 122/86/20 123/82/20
f 5/30/21 6/29/21 70/83/21 69/87/21
f 31/4/22 32/3/22 96/85/22 95/88/22
f 58/57/23 57/56/23 121/89/23 122/86/23
f 4/31/24 5/30/24 69/87/24 68/90/24
f 30/5/25 31/4/25 95/88/25 94/91/25
f 57/56/26 56/55/26 120/92/26 121/89/26
f 3/32/27 4/31/27 68/90/27 67/93/27
f 29/6/28 30/5/28 94/91/28 93/94/28
f 56/55/29 55/54/29 119/95/29 120/92/29
f 2/1/30 3/32/30 67/93/30 65/96/30
f 28/7/31 29/6/31 93/94/31 92/97/31
f 55/54/32 54/53/32 118/98/32 119/95/32
f 1/2/33 2/1/33 65/96/33 66/84/33
f 27/8/34 28/7/34 92/97/34 91/99/34
f 69/87/2 70/83/2 102/68/2 101/67/2
f 96/85/2 66/84/2 133/100/2 98/81/2 128/70/2
f 83/101/2 84/102/2 116/103/2 115/104/2
f 70/83/2 71/80/2 103/105/2 102/68/2
f 84/102/2 85/106/2 117/107/2 116/103/2
f 71/80/2 72/77/2 104/108/2 103/105/2
f 85/106/2 86/109/2 118/98/2 117/107/2
f 72/77/2 73/74/2 105/110/2 104/108/2
f 86/109/2 87/111/2 119/95/2 118/98/2
f 73/74/2 74/71/2 106/112/2 105/110/2
f 87/111/2 88/113/2 120/92/2 119/95/2
f 74/71/2 75/66/2 107/114/2 106/112/2
f 88/113/2 89/115/2 121/89/2 120/92/2
f 75/66/2 76/65/2 108/116/2 107/114/2
f 89/115/2 90/117/2 122/86/2 121/89/2
f 76/65/2 77/118/2 109/119/2 108/116/2
f 90/117/2 91/99/2 123/82/2 122/86/2
f 77/118/2 78/120/2 110/121/2 109/119/2
f 91/99/2 92/97/2 124/79/2 123/82/2
f 78/120/2 79/122/2 111/123/2 110/121/2
f 66/84/2 65/96/2 97/78/2 98/81/2 133/100/2
f 92/97/2 93/94/2 125/76/2 124/79/2
f 79/122/2 80/124/2 112/125/2 111/123/2
f 65/96/2 67/93/2 99/75/2 97/78/2
f 93/94/2 94/91/2 126/73/2 125/76/2
f 80/124/2 81/126/2 129/127/2 113/128/2 112/125/2
f 67/93/2 68/90/2 100/72/2 99/75/2
f 94/91/2 95/88/2 127/69/2 126/73/2
f 81/126/2 82/129/2 114/130/2 113/128/2 129/127/2
f 68/90/2 69/87/2 101/67/2 100/72/2
f 95/88/2 96/85/2 128/70/2 127/69/2
f 82/129/2 83/101/2 115/104/2 114/130/2
f 34/64/35 64/63/35 128/70/35 98/81/35
f 39/38/36 38/37/36 102/68/36 103/105/36
f 12/23/37 13/22/37 77/118/37 76/65/37
f 40/39/38 39/38/38 103/105/38 104/108/38
f 13/22/39 14/21/39 78/120/39 77/118/39
f 41/40/40 40/39/40 104/108/40 105/110/40
f 14/21/41 15/20/41 79/122/41 78/120/41
f 42/41/42 41/40/42 105/110/42 106/112/42
f 15/20/43 16/19/43 80/124/43 79/122/43
f 43/42/44 42/41/44 106/112/44 107/114/44
f 16/19/45 17/18/45 81/126/45 80/124/45
f 44/43/46 43/42/46 107/114/46 108/116/46
f 17/18/47 18/17/47 82/129/47 81/126/47
f 45/44/48 44/43/48 108/116/48 109/119/48
f 18/17/49 19/16/49 83/101/49 82/129/49
f 46/45/50 45/44/50 109/119/50 110/121/50
f 19/16/51 20/15/51 84/102/51 83/101/51
f 47/46/52 46/45/52 110/121/52 111/123/52
f 20/15/53 21/14/53 85/106/53 84/102/53
f 48/47/54 47/46/54 111/123/54 112/125/54
f 21/14/55 22/13/55 86/109/55 85/106/55
f 49/48/56 48/47/56 112/125/56 113/128/56
f 22/13/57 23/12/57 87/111/57 86/109/57
f 50/49/58 49/48/58 113/128/58 114/130/58
f 23/12/59 24/11/59 88/113/59 87/111/59
f 51/50/60 50/49/60 114/130/60 115/104/60
f 24/11/61 25/10/61 89/115/61 88/113/61
f 52/51/62 51/50/62 115/104/62 116/103/62
f 25/10/63 26/9/63 90/117/63 89/115/63
f 53/52/64 52/51/64 116/103/64 117/107/64
f 26/9/65 27/8/65 91/99/65 90/117/65
f 54/53/66 53/52/66 117/107/66 118/98/66
f 114/130/1 129/127/1 112/125/1
f 131/131/2 130/132/2 132/133/2
f 129/127/67 114/130/67 131/131/67 132/133/67
f 112/125/68 129/127/68 132/133/68 130/132/68
f 114/130/69 112/125/69 130/132/69 131/131/69
f 133/100/1 128/70/1 97/78/1
f 136/134/2 134/135/2 135/136/2
f 128/70/70 133/100/70 136/134/70 135/136/70
f 97/78/71 128/70/71 135/136/71 134/135/71
f 133/100/72 97/78/72 134/135/72 136/134/72
f 137/137/73 138/138/73 140/139/73 139/140/73
f 139/140/74 140/139/74 142/141/74 141/142/74
f 141/142/75 142/141/75 144/143/75 143/144/75
f 143/144/76 144/143/76 146/145/76 145/146/76
f 145/146/77 146/145/77 148/147/77 147/148/77
f 147/148/78 148/147/78 150/149/78 149/150/78
f 149/150/79 150/149/79 152/151/79 151/152/79
f 151/152/80 152/151/80 154/153/80 153/154/80
f 153/154/81 154/153/81 156/155/81 155/156/81
f 155/156/82 156/155/82 158/157/82 157/158/82
f 157/158/83 158/157/83 160/159/83 159/160/83
f 159/160/84 160/159/84 162/161/84 161/162/84
f 161/162/85 162/161/85 164/163/85 163/164/85
f 163/164/86 164/163/86 166/165/86 165/166/86
f 165/166/87 166/165/87 168/167/87 167/168/87
f 167/168/88 168/167/88 170/169/88 169/170/88
f 169/170/89 170/169/89 172/171/89 171/172/89
f 171/172/90 172/171/90 174/173/90 173/174/90
f 173/174/91 174/173/91 176/175/91 175/176/91
f 175/176/92 176/175/92 178/177/92 177/178/92
f 177/178/93 178/177/93 180/179/93 179/180/93
f 179/180/94 180/179/94 182/181/94 181/182/94
f 181/182/95 182/181/95 184/183/95 183/184/95
f 183/184/96 184/183/96 186/185/96 185/186/96
f 185/186/97 186/185/97 188/187/97 187/188/97
f 187/188/98 188/187/98 190/189/98 189/190/98
f 189/190/99 190/189/99 192/191/99 191/192/99
f 191/192/100 192/191/100 194/193/100 193/194/100
f 193/194/101 194/193/101 196/195/101 195/196/101
f 195/196/102 196/195/102 198/197/102 197/198/102
f 140/199/71 138/200/71 200/201/71 198/202/71 196/203/71 194/204/71 192/205/71 190/206/71 188/207/71 186/208/71 184/209/71 182/210/71 180/211/71 178/212/71 176/213/71 174/214/71 172/215/71 170/216/71 168/217/71 166/218/71 164/219/71 162/220/71 160/221/71 158/222/71 156/223/71 154/224/71 152/225/71 150/226/71 148/227/71 146/228/71 144/229/71 142/230/71
f 197/198/103 198/197/103 200/231/103 199/232/103
f 199/232/104 200/231/104 138/233/104 137/234/104
f 137/235/69 139/236/69 141/237/69 143/238/69 145/239/69 147/240/69 149/241/69 151/242/69 153/243/69 155/244/69 157/245/69 159/246/69 161/247/69 163/248/69 165/249/69 167/250/69 169/251/69 171/252/69 173/253/69 175/254/69 177/255/69 179/256/69 181/257/69 183/258/69 185/259/69 187/260/69 189/261/69 191/262/69 193/263/69 195/264/69 197/265/69 199/266/69
