# Blender v3.0.0 OBJ File: 'frame.blend'
# www.blender.org
mtllib frame.mtl
o Plane
v -1.593000 0.000000 2.400000
v 1.527000 0.000000 2.400000
v -1.593000 0.000000 -2.400000
v 1.527000 0.000000 -2.400000
v -1.333000 0.000000 -2.000000
v -1.333000 0.000000 2.000000
v 1.267000 0.000000 2.000000
v 1.267000 0.000000 -2.000000
v -1.333000 0.000000 -2.000000
v -1.333000 0.000000 2.000000
v 1.267000 0.000000 2.000000
v 1.267000 0.000000 -2.000000
v -1.333000 0.100000 2.000000
v 1.267000 0.100000 2.000000
v -1.593000 0.100000 2.400000
v 1.527000 0.100000 2.400000
v 1.527000 0.000000 2.400000
v 1.527000 0.000000 -2.400000
v 1.267000 0.000000 2.000000
v 1.267000 0.000000 -2.000000
v -1.333000 0.000000 -2.000000
v -1.333000 0.000000 2.000000
v 1.267000 0.000000 2.000000
v 1.267000 0.000000 -2.000000
v 1.267000 0.100000 2.000000
v 1.267000 0.100000 -2.000000
v 1.527000 0.100000 2.400000
v 1.527000 0.100000 -2.400000
v 1.267000 0.100000 -2.000000
v -1.333000 0.100000 -2.000000
v 1.527000 0.100000 -2.400000
v -1.593000 0.100000 -2.400000
v -1.333000 0.100000 -2.000000
v -1.333000 0.100000 2.000000
v -1.593000 0.100000 -2.400000
v -1.593000 0.100000 2.400000
v -1.333000 0.000000 -2.000000
v -1.333000 0.000000 2.000000
v 1.267000 0.000000 2.000000
v 1.267000 0.000000 -2.000000
vt 0.000000 0.000000
vt 0.000000 0.000000
vt 0.000000 0.000000
vt 0.000000 0.000000
vt 0.000000 0.000000
vt 0.083333 0.083333
vt 0.083333 0.083333
vt 0.000000 0.000000
vt 1.000000 0.000000
vt 0.916667 0.083333
vt 0.916667 0.083333
vt 1.000000 0.000000
vt 0.916667 0.083333
vt 0.916667 0.083333
vt 0.916667 0.083333
vt 0.916667 0.916667
vt 1.000000 1.000000
vt 1.000000 1.000000
vt 0.916667 0.916667
vt 1.000000 0.000000
vt 0.083333 0.916667
vt 0.083333 0.083333
vt 0.083333 0.916667
vt 0.916667 0.916667
vt 0.083333 0.083333
vt 0.000000 0.000000
vt 0.000000 0.000000
vt 0.916667 0.916667
vt 0.916667 0.916667
vt 1.000000 0.000000
vt 0.916667 0.083333
vt 0.083333 0.916667
vt 0.083333 0.083333
vt 0.083333 0.083333
vt 0.083333 0.916667
vt 1.000000 1.000000
vt 0.916667 0.916667
vt 1.000000 1.000000
vt 0.000000 0.000000
vt 0.000000 0.000000
vt 0.083333 0.916667
vt 0.000000 1.000000
vt 0.000000 1.000000
vt 0.000000 0.000000
vt 0.000000 0.000000
vt 0.000000 0.000000
vt 0.083333 0.916667
vt 0.000000 1.000000
vt 0.000000 0.000000
vt 0.916667 0.083333
vt 0.916667 0.916667
vn 0.0000 0.0000 1.0000
vn 0.8384 0.0000 0.5450
vn 0.8384 0.0000 -0.5450
vn 0.0000 1.0000 0.0000
vn -0.8384 0.0000 -0.5450
vn 0.0000 0.0000 -1.0000
vn -0.8384 0.0000 0.5450
vn -1.0000 0.0000 0.0000
vn 1.0000 0.0000 0.0000
vn 0.0000 -1.0000 0.0000
usemtl None
s off
f 2/1/1 4/2/1 18/3/1 17/4/1
f 1/5/2 6/6/2 34/7/2 36/8/2
f 2/9/3 7/10/3 14/11/3 16/12/3
f 11/13/1 7/10/1 19/14/1 23/15/1
f 8/16/2 4/17/2 31/18/2 29/19/2
f 7/10/1 2/9/1 17/20/1 19/14/1
f 5/21/1 6/6/1 10/22/1 9/23/1
f 8/16/1 5/21/1 9/23/1 12/24/1
f 6/6/1 7/10/1 11/13/1 10/22/1
f 14/11/4 13/25/4 15/26/4 16/12/4
f 6/6/5 1/5/5 15/26/5 13/25/5
f 1/5/1 2/1/1 16/27/1 15/26/1
f 7/10/6 6/6/6 13/25/6 14/11/6
f 19/14/1 20/28/1 24/29/1 23/15/1
f 19/14/7 17/20/7 27/30/7 25/31/7
f 21/32/1 22/33/1 38/34/1 37/35/1
f 12/24/1 9/23/1 21/32/1 24/29/1
f 10/22/1 11/13/1 23/15/1 22/33/1
f 4/17/1 8/16/1 20/28/1 18/36/1
f 8/16/1 12/24/1 24/29/1 20/28/1
f 9/23/1 10/22/1 22/33/1 21/32/1
f 26/37/4 25/31/4 27/30/4 28/38/4
f 20/28/8 19/14/8 25/31/8 26/37/8
f 18/36/5 20/28/5 26/37/5 28/38/5
f 17/4/9 18/3/9 28/39/9 27/40/9
f 30/41/4 29/19/4 31/18/4 32/42/4
f 3/43/7 5/21/7 30/41/7 32/42/7
f 4/2/6 3/44/6 32/45/6 31/46/6
f 5/21/1 8/16/1 29/19/1 30/41/1
f 34/7/4 33/47/4 35/48/4 36/8/4
f 3/44/8 1/5/8 36/8/8 35/49/8
f 6/6/9 5/21/9 33/47/9 34/7/9
f 5/21/3 3/43/3 35/48/3 33/47/3
f 38/34/4 39/50/4 40/51/4 37/35/4
f 24/29/1 21/32/1 37/35/1 40/51/1
f 22/33/1 23/15/1 39/50/1 38/34/1
f 23/15/1 24/29/1 40/51/1 39/50/1
f 1/5/10 3/44/10 18/3/10 17/4/10
