# Blender v3.0.0 OBJ File: 'pine.blend'
# www.blender.org
mtllib pine.mtl
o BezierCurve
v 0.000000 1.961975 0.000000
v -0.002027 1.626243 0.033672
v -0.007372 1.316489 0.055655
v -0.014928 1.025051 0.067621
v -0.023590 0.744266 0.071239
v -0.032252 0.466471 0.068178
v -0.039808 0.184004 0.060108
v -0.045153 -0.110798 0.048698
v -0.047180 -0.425598 0.035619
v -0.044784 -0.768058 0.022540
v -0.036860 -1.145841 0.011131
v -0.022300 -1.566609 0.003061
v 0.000000 -2.038025 0.000000
l 1 2
l 2 3
l 3 4
l 4 5
l 5 6
l 6 7
l 7 8
l 8 9
l 9 10
l 10 11
l 11 12
l 12 13
o Cone
v -0.000229 -1.968214 -0.401360
v 0.077807 -1.967265 -0.393732
v 0.152844 -1.964660 -0.371119
v 0.221999 -1.960497 -0.334390
v 0.282613 -1.954937 -0.284957
v 0.332359 -1.948193 -0.224719
v 0.369323 -1.940526 -0.155991
v 0.392085 -1.932228 -0.081414
v 0.399771 -1.923620 -0.003854
v 0.392085 -1.915031 0.073708
v 0.369323 -1.906793 0.148292
v 0.332360 -1.899221 0.217031
v 0.282615 -1.892607 0.277284
v 0.222000 -1.887205 0.326735
v 0.152846 -1.883222 0.363484
v 0.077808 -1.880811 0.386119
v -0.000228 -1.880066 0.393769
v -0.078264 -1.881014 0.386142
v -0.153301 -1.883620 0.363529
v -0.222456 -1.887783 0.326800
v -0.283070 -1.893343 0.277367
v -0.332815 -1.900086 0.217129
v -0.369780 -1.907754 0.148400
v -0.392542 -1.916051 0.073823
v -0.400228 -1.924660 -0.003737
v -0.392542 -1.933248 -0.081299
v -0.369780 -1.941487 -0.155882
v -0.332816 -1.949058 -0.224621
v -0.283072 -1.955672 -0.284874
v -0.222457 -1.961075 -0.334325
v -0.153303 -1.965058 -0.371074
v -0.078265 -1.967468 -0.393709
v 0.001546 2.070703 0.000213
vt 0.250000 0.490000
vt 0.250000 0.250000
vt 0.296822 0.485388
vt 0.341844 0.471731
vt 0.383337 0.449553
vt 0.419706 0.419706
vt 0.449553 0.383337
vt 0.471731 0.341844
vt 0.485388 0.296822
vt 0.490000 0.250000
vt 0.485388 0.203178
vt 0.471731 0.158156
vt 0.449553 0.116663
vt 0.419706 0.080294
vt 0.383337 0.050447
vt 0.341844 0.028269
vt 0.296822 0.014612
vt 0.250000 0.010000
vt 0.203178 0.014612
vt 0.158156 0.028269
vt 0.116663 0.050447
vt 0.080294 0.080294
vt 0.050447 0.116663
vt 0.028269 0.158156
vt 0.014612 0.203178
vt 0.010000 0.250000
vt 0.014612 0.296822
vt 0.028269 0.341844
vt 0.050447 0.383337
vt 0.080294 0.419706
vt 0.116663 0.449553
vt 0.158156 0.471731
vt 0.750000 0.490000
vt 0.796822 0.485388
vt 0.841844 0.471731
vt 0.883337 0.449553
vt 0.919706 0.419706
vt 0.949553 0.383337
vt 0.971731 0.341844
vt 0.985388 0.296822
vt 0.990000 0.250000
vt 0.985388 0.203178
vt 0.971731 0.158156
vt 0.949553 0.116663
vt 0.919706 0.080294
vt 0.883337 0.050447
vt 0.841844 0.028269
vt 0.796822 0.014612
vt 0.750000 0.010000
vt 0.703178 0.014612
vt 0.658156 0.028269
vt 0.616663 0.050447
vt 0.580294 0.080294
vt 0.550447 0.116663
vt 0.528269 0.158156
vt 0.514612 0.203178
vt 0.510000 0.250000
vt 0.514612 0.296822
vt 0.528269 0.341844
vt 0.550447 0.383337
vt 0.580294 0.419706
vt 0.616663 0.449553
vt 0.658156 0.471731
vt 0.703178 0.485388
vt 0.203178 0.485388
vn 0.0956 0.0984 -0.9905
vn 0.2840 0.0984 -0.9538
vn 0.4622 0.0984 -0.8813
vn 0.6235 0.0985 -0.7756
vn 0.7619 0.0985 -0.6402
vn 0.8718 0.0986 -0.4799
vn 0.9487 0.0987 -0.3005
vn 0.9891 0.0987 -0.1090
vn 0.9913 0.0987 0.0873
vn 0.9548 0.0987 0.2805
vn 0.8809 0.0987 0.4628
vn 0.7727 0.0986 0.6271
vn 0.6343 0.0986 0.7668
vn 0.4714 0.0986 0.8764
vn 0.2903 0.0986 0.9518
vn 0.0980 0.0986 0.9903
vn -0.0980 0.0987 0.9903
vn -0.2903 0.0988 0.9518
vn -0.4714 0.0990 0.8763
vn -0.6343 0.0991 0.7667
vn -0.7727 0.0993 0.6270
vn -0.8809 0.0995 0.4627
vn -0.9547 0.0996 0.2803
vn -0.9912 0.0996 0.0872
vn -0.9890 0.0996 -0.1090
vn -0.9486 0.0995 -0.3005
vn -0.8718 0.0993 -0.4797
vn -0.7620 0.0992 -0.6400
vn -0.6237 0.0990 -0.7753
vn -0.4625 0.0988 -0.8811
vn 0.0013 -0.9939 0.1102
vn -0.2845 0.0986 -0.9536
vn -0.0962 0.0985 -0.9905
usemtl None
s off
f 14/1/1 46/2/1 15/3/1
f 15/3/2 46/2/2 16/4/2
f 16/4/3 46/2/3 17/5/3
f 17/5/4 46/2/4 18/6/4
f 18/6/5 46/2/5 19/7/5
f 19/7/6 46/2/6 20/8/6
f 20/8/7 46/2/7 21/9/7
f 21/9/8 46/2/8 22/10/8
f 22/10/9 46/2/9 23/11/9
f 23/11/10 46/2/10 24/12/10
f 24/12/11 46/2/11 25/13/11
f 25/13/12 46/2/12 26/14/12
f 26/14/13 46/2/13 27/15/13
f 27/15/14 46/2/14 28/16/14
f 28/16/15 46/2/15 29/17/15
f 29/17/16 46/2/16 30/18/16
f 30/18/17 46/2/17 31/19/17
f 31/19/18 46/2/18 32/20/18
f 32/20/19 46/2/19 33/21/19
f 33/21/20 46/2/20 34/22/20
f 34/22/21 46/2/21 35/23/21
f 35/23/22 46/2/22 36/24/22
f 36/24/23 46/2/23 37/25/23
f 37/25/24 46/2/24 38/26/24
f 38/26/25 46/2/25 39/27/25
f 39/27/26 46/2/26 40/28/26
f 40/28/27 46/2/27 41/29/27
f 41/29/28 46/2/28 42/30/28
f 42/30/29 46/2/29 43/31/29
f 43/31/30 46/2/30 44/32/30
f 14/33/31 15/34/31 16/35/31 17/36/31 18/37/31 19/38/31 20/39/31 21/40/31 22/41/31 23/42/31 24/43/31 25/44/31 26/45/31 27/46/31 28/47/31 29/48/31 30/49/31 31/50/31 32/51/31 33/52/31 34/53/31 35/54/31 36/55/31 37/56/31 38/57/31 39/58/31 40/59/31 41/60/31 42/61/31 43/62/31 44/63/31 45/64/31
f 44/32/32 46/2/32 45/65/32
f 45/65/33 46/2/33 14/1/33
