# Blender v2.93.1 OBJ File: 'PseudoColumn.blend'
# www.blender.org
mtllib PseudoColumn.mtl
o Circle
v 0.000000 0.000000 -1.000000
v -0.195090 0.000000 -0.980785
v -0.382683 0.000000 -0.923880
v -0.555570 0.000000 -0.831470
v -0.707107 0.000000 -0.707107
v -0.831470 0.000000 -0.555570
v -0.923880 0.000000 -0.382683
v -0.980785 0.000000 -0.195090
v -1.000000 0.000000 0.000000
v -0.980785 0.000000 0.195090
v -0.923880 0.000000 0.382683
v -0.831470 0.000000 0.555570
v -0.707107 0.000000 0.707107
v -0.555570 0.000000 0.831470
v -0.382683 0.000000 0.923880
v -0.195090 0.000000 0.980785
v 0.000000 0.000000 1.000000
v 0.195090 0.000000 0.980785
v 0.382683 0.000000 0.923880
v 0.555570 0.000000 0.831470
v 0.707107 0.000000 0.707107
v 0.831469 0.000000 0.555570
v 0.923880 0.000000 0.382684
v 0.980785 0.000000 0.195090
v 1.000000 0.000000 -0.000000
v 0.980785 0.000000 -0.195090
v 0.923879 0.000000 -0.382684
v 0.831470 0.000000 -0.555570
v 0.707107 0.000000 -0.707107
v 0.555570 0.000000 -0.831470
v 0.382683 0.000000 -0.923880
v 0.195090 0.000000 -0.980785
v 0.000000 0.400000 -1.000000
v -0.195090 0.400000 -0.980785
v -0.382683 0.400000 -0.923880
v -0.555570 0.400000 -0.831470
v -0.707107 0.400000 -0.707107
v -0.831470 0.400000 -0.555570
v -0.923880 0.400000 -0.382683
v -0.980785 0.400000 -0.195090
v -1.000000 0.400000 0.000000
v -0.980785 0.400000 0.195090
v -0.923880 0.400000 0.382683
v -0.831470 0.400000 0.555570
v -0.707107 0.400000 0.707107
v -0.555570 0.400000 0.831470
v -0.382683 0.400000 0.923880
v -0.195090 0.400000 0.980785
v 0.000000 0.400000 1.000000
v 0.195090 0.400000 0.980785
v 0.382683 0.400000 0.923880
v 0.555570 0.400000 0.831470
v 0.707107 0.400000 0.707107
v 0.831469 0.400000 0.555570
v 0.923880 0.400000 0.382684
v 0.980785 0.400000 0.195090
v 1.000000 0.400000 -0.000000
v 0.980785 0.400000 -0.195090
v 0.923879 0.400000 -0.382684
v 0.831470 0.400000 -0.555570
v 0.707107 0.400000 -0.707107
v 0.555570 0.400000 -0.831470
v 0.382683 0.400000 -0.923880
v 0.195090 0.400000 -0.980785
v -0.000000 0.400000 -0.903428
v -0.176250 0.400000 -0.886069
v -0.345727 0.400000 -0.834659
v -0.501918 0.400000 -0.751173
v -0.638820 0.400000 -0.638820
v -0.751173 0.400000 -0.501918
v -0.834659 0.400000 -0.345727
v -0.886069 0.400000 -0.176250
v -0.903428 0.400000 0.000000
v -0.886069 0.400000 0.176250
v -0.834659 0.400000 0.345727
v -0.751173 0.400000 0.501918
v -0.638820 0.400000 0.638820
v -0.501918 0.400000 0.751173
v -0.345727 0.400000 0.834659
v -0.176250 0.400000 0.886069
v 0.000000 0.400000 0.903428
v 0.176250 0.400000 0.886069
v 0.345727 0.400000 0.834659
v 0.501918 0.400000 0.751173
v 0.638820 0.400000 0.638820
v 0.751173 0.400000 0.501918
v 0.834659 0.400000 0.345727
v 0.886069 0.400000 0.176250
v 0.903428 0.400000 -0.000000
v 0.886069 0.400000 -0.176250
v 0.834659 0.400000 -0.345727
v 0.751173 0.400000 -0.501918
v 0.638820 0.400000 -0.638820
v 0.501918 0.400000 -0.751173
v 0.345727 0.400000 -0.834659
v 0.176250 0.400000 -0.886069
v -0.381805 4.400000 -0.818784
v -0.534206 4.400000 -0.728565
v -0.666077 4.400000 -0.610347
v -0.772352 4.400000 -0.468674
v -0.848945 4.400000 -0.308991
v -0.892914 4.400000 -0.137433
v -0.902568 4.400000 0.039407
v -0.877538 4.400000 0.214732
v -0.818784 4.400000 0.381805
v -0.728565 4.400000 0.534206
v -0.610347 4.400000 0.666077
v -0.468675 4.400000 0.772352
v -0.308991 4.400000 0.848945
v -0.137433 4.400000 0.892914
v 0.039407 4.400000 0.902568
v 0.214732 4.400000 0.877538
v 0.381805 4.400000 0.818784
v 0.534206 4.400000 0.728565
v 0.666077 4.400000 0.610347
v 0.772352 4.400000 0.468674
v 0.848945 4.400000 0.308991
v 0.892914 4.400000 0.137433
v 0.902568 4.400000 -0.039407
v 0.877538 4.400000 -0.214732
v 0.818784 4.400000 -0.381805
v 0.728565 4.400000 -0.534206
v 0.610347 4.400000 -0.666077
v 0.468675 4.400000 -0.772351
v 0.308991 4.400000 -0.848945
v 0.137433 4.400000 -0.892914
v -0.039407 4.400000 -0.902568
v -0.214732 4.400000 -0.877538
v -0.433234 4.400000 -0.929073
v -0.606162 4.400000 -0.826701
v -0.755796 4.400000 -0.692560
v -0.876386 4.400000 -0.531804
v -0.963296 4.400000 -0.350611
v -1.013187 4.400000 -0.155944
v -1.024143 4.400000 0.044715
v -0.995741 4.400000 0.243656
v -0.929073 4.400000 0.433234
v -0.826701 4.400000 0.606162
v -0.692560 4.400000 0.755796
v -0.531804 4.400000 0.876386
v -0.350611 4.400000 0.963296
v -0.155944 4.400000 1.013187
v 0.044715 4.400000 1.024143
v 0.243656 4.400000 0.995740
v 0.433234 4.400000 0.929073
v 0.606162 4.400000 0.826701
v 0.755796 4.400000 0.692560
v 0.876386 4.400000 0.531804
v 0.963296 4.400000 0.350611
v 1.013187 4.400000 0.155945
v 1.024143 4.400000 -0.044715
v 0.995740 4.400000 -0.243656
v 0.929072 4.400000 -0.433234
v 0.826701 4.400000 -0.606162
v 0.692560 4.400000 -0.755797
v 0.531804 4.400000 -0.876386
v 0.350611 4.400000 -0.963296
v 0.155944 4.400000 -1.013187
v -0.044715 4.400000 -1.024143
v -0.243656 4.400000 -0.995740
v -0.433234 4.800000 -0.929073
v -0.606162 4.800000 -0.826701
v -0.755796 4.800000 -0.692560
v -0.876386 4.800000 -0.531804
v -0.963296 4.800000 -0.350611
v -1.013187 4.800000 -0.155944
v -1.024142 4.800000 0.044715
v -0.995740 4.800000 0.243656
v -0.929073 4.800000 0.433234
v -0.826701 4.800000 0.606162
v -0.692560 4.800000 0.755796
v -0.531804 4.800000 0.876386
v -0.350611 4.800000 0.963296
v -0.155944 4.800000 1.013187
v 0.044715 4.800000 1.024143
v 0.243656 4.800000 0.995740
v 0.433234 4.800000 0.929072
v 0.606162 4.800000 0.826701
v 0.755797 4.800000 0.692560
v 0.876386 4.800000 0.531804
v 0.963296 4.800000 0.350611
v 1.013187 4.800000 0.155945
v 1.024143 4.800000 -0.044715
v 0.995740 4.800000 -0.243656
v 0.929073 4.800000 -0.433234
v 0.826701 4.800000 -0.606162
v 0.692560 4.800000 -0.755797
v 0.531804 4.800000 -0.876386
v 0.350611 4.800000 -0.963296
v 0.155945 4.800000 -1.013187
v -0.044715 4.800000 -1.024143
v -0.243656 4.800000 -0.995741
vt 0.000000 0.000000
vt 0.000000 0.000000
vt 0.000000 0.000000
vt 0.000000 0.000000
vt 0.000000 0.000000
vt 0.000000 0.000000
vt 0.000000 0.000000
vt 0.000000 0.000000
vt 0.000000 0.000000
vt 0.000000 0.000000
vt 0.000000 0.000000
vt 0.000000 0.000000
vt 0.000000 0.000000
vt 0.000000 0.000000
vt 0.000000 0.000000
vt 0.000000 0.000000
vt 0.000000 0.000000
vt 0.000000 0.000000
vt 0.000000 0.000000
vt 0.000000 0.000000
vt 0.000000 0.000000
vt 0.000000 0.000000
vt 0.000000 0.000000
vt 0.000000 0.000000
vt 0.000000 0.000000
vt 0.000000 0.000000
vt 0.000000 0.000000
vt 0.000000 0.000000
vt 0.000000 0.000000
vt 0.000000 0.000000
vt 0.000000 0.000000
vt 0.000000 0.000000
vt 0.000000 0.000000
vt 0.000000 0.000000
vt 0.000000 0.000000
vt 0.000000 0.000000
vt 0.000000 0.000000
vt 0.000000 0.000000
vt 0.000000 0.000000
vt 0.000000 0.000000
vt 0.000000 0.000000
vt 0.000000 0.000000
vt 0.000000 0.000000
vt 0.000000 0.000000
vt 0.000000 0.000000
vt 0.000000 0.000000
vt 0.000000 0.000000
vt 0.000000 0.000000
vt 0.000000 0.000000
vt 0.000000 0.000000
vt 0.000000 0.000000
vt 0.000000 0.000000
vt 0.000000 0.000000
vt 0.000000 0.000000
vt 0.000000 0.000000
vt 0.000000 0.000000
vt 0.000000 0.000000
vt 0.000000 0.000000
vt 0.000000 0.000000
vt 0.000000 0.000000
vt 0.000000 0.000000
vt 0.000000 0.000000
vt 0.000000 0.000000
vt 0.000000 0.000000
vt 0.000000 0.000000
vt 0.000000 0.000000
vt 0.000000 0.000000
vt 0.000000 0.000000
vt 0.000000 0.000000
vt 0.000000 0.000000
vt 0.000000 0.000000
vt 0.000000 0.000000
vt 0.000000 0.000000
vt 0.000000 0.000000
vt 0.000000 0.000000
vt 0.000000 0.000000
vt 0.000000 0.000000
vt 0.000000 0.000000
vt 0.000000 0.000000
vt 0.000000 0.000000
vt 0.000000 0.000000
vt 0.000000 0.000000
vt 0.000000 0.000000
vt 0.000000 0.000000
vt 0.000000 0.000000
vt 0.000000 0.000000
vt 0.000000 0.000000
vt 0.000000 0.000000
vt 0.000000 0.000000
vt 0.000000 0.000000
vt 0.000000 0.000000
vt 0.000000 0.000000
vt 0.000000 0.000000
vt 0.000000 0.000000
vt 0.000000 0.000000
vt 0.000000 0.000000
vt 0.000000 0.000000
vt 0.000000 0.000000
vt 0.000000 0.000000
vt 0.000000 0.000000
vt 0.000000 0.000000
vt 0.000000 0.000000
vt 0.000000 0.000000
vt 0.000000 0.000000
vt 0.000000 0.000000
vt 0.000000 0.000000
vt 0.000000 0.000000
vt 0.000000 0.000000
vt 0.000000 0.000000
vt 0.000000 0.000000
vt 0.000000 0.000000
vt 0.000000 0.000000
vt 0.000000 0.000000
vt 0.000000 0.000000
vt 0.000000 0.000000
vt 0.000000 0.000000
vt 0.000000 0.000000
vt 0.000000 0.000000
vt 0.000000 0.000000
vt 0.000000 0.000000
vt 0.000000 0.000000
vt 0.000000 0.000000
vt 0.000000 0.000000
vt 0.000000 0.000000
vt 0.000000 0.000000
vt 0.000000 0.000000
vt 0.000000 0.000000
vt 0.000000 0.000000
vt 0.000000 0.000000
vt 0.000000 0.000000
vt 0.000000 0.000000
vt 0.000000 0.000000
vt 0.000000 0.000000
vt 0.000000 0.000000
vt 0.000000 0.000000
vt 0.000000 0.000000
vt 0.000000 0.000000
vt 0.000000 0.000000
vt 0.000000 0.000000
vt 0.000000 0.000000
vt 0.000000 0.000000
vt 0.000000 0.000000
vt 0.000000 0.000000
vt 0.000000 0.000000
vt 0.000000 0.000000
vt 0.000000 0.000000
vt 0.000000 0.000000
vt 0.000000 0.000000
vt 0.000000 0.000000
vt 0.000000 0.000000
vt 0.000000 0.000000
vt 0.000000 0.000000
vt 0.000000 0.000000
vt 0.000000 0.000000
vt 0.000000 0.000000
vt 0.000000 0.000000
vt 0.000000 0.000000
vt 0.000000 0.000000
vt 0.000000 0.000000
vt 0.000000 0.000000
vt 0.000000 0.000000
vt 0.000000 0.000000
vt 0.000000 0.000000
vt 0.000000 0.000000
vt 0.000000 0.000000
vt 0.000000 0.000000
vt 0.000000 0.000000
vt 0.000000 0.000000
vt 0.000000 0.000000
vt 0.000000 0.000000
vt 0.000000 0.000000
vt 0.000000 0.000000
vt 0.000000 0.000000
vt 0.000000 0.000000
vt 0.000000 0.000000
vt 0.000000 0.000000
vt 0.000000 0.000000
vt 0.000000 0.000000
vt 0.000000 0.000000
vt 0.000000 0.000000
vt 0.000000 0.000000
vt 0.000000 0.000000
vt 0.000000 0.000000
vt 0.000000 0.000000
vt 0.000000 0.000000
vt 0.000000 0.000000
vt 0.000000 0.000000
vt 0.000000 0.000000
vt 0.000000 0.000000
vt 0.000000 0.000000
vt 0.000000 0.000000
vt 0.000000 0.000000
vn 0.0000 -1.0000 0.0000
vn 0.0000 1.0000 0.0000
vn 0.9952 0.0000 -0.0980
vn -0.7730 0.0000 0.6344
vn 0.9569 0.0000 -0.2903
vn -0.6344 0.0000 0.7730
vn 0.8819 0.0000 -0.4714
vn -0.4714 0.0000 0.8819
vn -0.0980 0.0000 -0.9952
vn 0.7730 0.0000 -0.6344
vn -0.2903 0.0000 0.9569
vn -0.2903 0.0000 -0.9569
vn 0.6344 0.0000 -0.7730
vn -0.0980 0.0000 0.9952
vn -0.4714 0.0000 -0.8819
vn 0.4714 0.0000 -0.8819
vn 0.0980 0.0000 0.9952
vn -0.6344 0.0000 -0.7730
vn 0.2903 0.0000 -0.9569
vn 0.2903 0.0000 0.9569
vn -0.7730 0.0000 -0.6344
vn 0.0980 0.0000 -0.9952
vn 0.4714 0.0000 0.8819
vn -0.8819 0.0000 -0.4714
vn 0.6344 0.0000 0.7730
vn -0.9569 0.0000 -0.2903
vn 0.7730 0.0000 0.6344
vn -0.9952 0.0000 -0.0980
vn 0.8819 0.0000 0.4714
vn -0.9952 0.0000 0.0980
vn 0.9569 0.0000 0.2903
vn -0.9569 0.0000 0.2903
vn 0.9952 0.0000 0.0980
vn -0.8819 0.0000 0.4714
vn -0.3111 -0.0000 -0.9504
vn 0.6174 0.0000 -0.7867
vn -0.0763 0.0000 0.9971
vn -0.4905 0.0000 -0.8714
vn 0.4520 0.0000 -0.8920
vn 0.1197 -0.0000 0.9928
vn -0.6511 0.0000 -0.7590
vn 0.2693 -0.0000 -0.9630
vn 0.3111 0.0000 0.9504
vn -0.7867 -0.0000 -0.6174
vn 0.0763 -0.0000 -0.9971
vn 0.4905 0.0000 0.8714
vn -0.8920 0.0000 -0.4520
vn -0.1197 -0.0000 -0.9928
vn 0.6511 0.0000 0.7590
vn -0.9630 -0.0000 -0.2693
vn 0.7867 0.0000 0.6174
vn -0.9971 0.0000 -0.0763
vn 0.8920 0.0000 0.4520
vn -0.9928 -0.0000 0.1197
vn 0.9630 0.0000 0.2693
vn -0.9504 -0.0000 0.3111
vn 0.9971 -0.0000 0.0763
vn -0.8714 0.0000 0.4905
vn 0.9928 0.0000 -0.1197
vn -0.7590 -0.0000 0.6511
vn 0.9504 -0.0000 -0.3111
vn -0.6174 -0.0000 0.7867
vn 0.8714 0.0000 -0.4905
vn -0.4520 0.0000 0.8920
vn 0.7590 0.0000 -0.6511
vn -0.2693 -0.0000 0.9630
vn 0.9434 -0.0000 -0.3317
vn -0.6001 0.0000 0.7999
vn 0.8605 -0.0000 -0.5094
vn -0.4325 0.0000 0.9016
vn 0.7446 -0.0000 -0.6675
vn -0.2483 0.0000 0.9687
vn 0.6001 -0.0000 -0.7999
vn -0.0545 0.0000 0.9985
vn -0.5094 0.0000 -0.8605
vn 0.4325 -0.0000 -0.9016
vn 0.1413 0.0000 0.9900
vn -0.6675 0.0000 -0.7446
vn 0.2483 -0.0000 -0.9687
vn 0.3318 0.0000 0.9434
vn -0.7999 0.0000 -0.6001
vn 0.0545 -0.0000 -0.9985
vn 0.5094 0.0000 0.8605
vn -0.9016 0.0000 -0.4325
vn -0.1413 -0.0000 -0.9900
vn 0.6675 -0.0000 0.7446
vn -0.9687 0.0000 -0.2483
vn -0.3317 -0.0000 -0.9434
vn 0.7999 -0.0000 0.6001
vn -0.9985 0.0000 -0.0545
vn 0.9016 -0.0000 0.4325
vn -0.9900 0.0000 0.1413
vn 0.9687 -0.0000 0.2483
vn -0.9434 0.0000 0.3317
vn 0.9985 -0.0000 0.0545
vn -0.8605 0.0000 0.5094
vn 0.9900 -0.0000 -0.1413
vn -0.7446 0.0000 0.6675
usemtl None
s off
f 2/1/1 1/2/1 32/3/1 31/4/1 30/5/1 29/6/1 28/7/1 27/8/1 26/9/1 25/10/1 24/11/1 23/12/1 22/13/1 21/14/1 20/15/1 19/16/1 18/17/1 17/18/1 16/19/1 15/20/1 14/21/1 13/22/1 12/23/1 11/24/1 10/25/1 9/26/1 8/27/1 7/28/1 6/29/1 5/30/1 4/31/1 3/32/1
f 48/33/2 49/34/2 81/35/2 80/36/2
f 25/10/3 26/9/3 58/37/3 57/38/3
f 12/23/4 13/22/4 45/39/4 44/40/4
f 26/9/5 27/8/5 59/41/5 58/37/5
f 13/22/6 14/21/6 46/42/6 45/39/6
f 27/8/7 28/7/7 60/43/7 59/41/7
f 14/21/8 15/20/8 47/44/8 46/42/8
f 1/2/9 2/1/9 34/45/9 33/46/9
f 28/7/10 29/6/10 61/47/10 60/43/10
f 15/20/11 16/19/11 48/33/11 47/44/11
f 2/1/12 3/32/12 35/48/12 34/45/12
f 29/6/13 30/5/13 62/49/13 61/47/13
f 16/19/14 17/18/14 49/34/14 48/33/14
f 3/32/15 4/31/15 36/50/15 35/48/15
f 30/5/16 31/4/16 63/51/16 62/49/16
f 17/18/17 18/17/17 50/52/17 49/34/17
f 4/31/18 5/30/18 37/53/18 36/50/18
f 31/4/19 32/3/19 64/54/19 63/51/19
f 18/17/20 19/16/20 51/55/20 50/52/20
f 5/30/21 6/29/21 38/56/21 37/53/21
f 32/3/22 1/2/22 33/46/22 64/54/22
f 19/16/23 20/15/23 52/57/23 51/55/23
f 6/29/24 7/28/24 39/58/24 38/56/24
f 20/15/25 21/14/25 53/59/25 52/57/25
f 7/28/26 8/27/26 40/60/26 39/58/26
f 21/14/27 22/13/27 54/61/27 53/59/27
f 8/27/28 9/26/28 41/62/28 40/60/28
f 22/13/29 23/12/29 55/63/29 54/61/29
f 9/26/30 10/25/30 42/64/30 41/62/30
f 23/12/31 24/11/31 56/65/31 55/63/31
f 10/25/32 11/24/32 43/66/32 42/64/32
f 24/11/33 25/10/33 57/38/33 56/65/33
f 11/24/34 12/23/34 44/40/34 43/66/34
f 65/67/35 66/68/35 98/69/35 97/70/35
f 35/48/2 36/50/2 68/71/2 67/72/2
f 62/49/2 63/51/2 95/73/2 94/74/2
f 49/34/2 50/52/2 82/75/2 81/35/2
f 36/50/2 37/53/2 69/76/2 68/71/2
f 63/51/2 64/54/2 96/77/2 95/73/2
f 50/52/2 51/55/2 83/78/2 82/75/2
f 37/53/2 38/56/2 70/79/2 69/76/2
f 64/54/2 33/46/2 65/67/2 96/77/2
f 51/55/2 52/57/2 84/80/2 83/78/2
f 38/56/2 39/58/2 71/81/2 70/79/2
f 52/57/2 53/59/2 85/82/2 84/80/2
f 39/58/2 40/60/2 72/83/2 71/81/2
f 53/59/2 54/61/2 86/84/2 85/82/2
f 40/60/2 41/62/2 73/85/2 72/83/2
f 54/61/2 55/63/2 87/86/2 86/84/2
f 41/62/2 42/64/2 74/87/2 73/85/2
f 55/63/2 56/65/2 88/88/2 87/86/2
f 42/64/2 43/66/2 75/89/2 74/87/2
f 56/65/2 57/38/2 89/90/2 88/88/2
f 43/66/2 44/40/2 76/91/2 75/89/2
f 57/38/2 58/37/2 90/92/2 89/90/2
f 44/40/2 45/39/2 77/93/2 76/91/2
f 58/37/2 59/41/2 91/94/2 90/92/2
f 45/39/2 46/42/2 78/95/2 77/93/2
f 59/41/2 60/43/2 92/96/2 91/94/2
f 46/42/2 47/44/2 79/97/2 78/95/2
f 33/46/2 34/45/2 66/68/2 65/67/2
f 60/43/2 61/47/2 93/98/2 92/96/2
f 47/44/2 48/33/2 80/36/2 79/97/2
f 34/45/2 35/48/2 67/72/2 66/68/2
f 61/47/2 62/49/2 94/74/2 93/98/2
f 117/99/1 118/100/1 150/101/1 149/102/1
f 92/96/36 93/98/36 125/103/36 124/104/36
f 79/97/37 80/36/37 112/105/37 111/106/37
f 66/68/38 67/72/38 99/107/38 98/69/38
f 93/98/39 94/74/39 126/108/39 125/103/39
f 80/36/40 81/35/40 113/109/40 112/105/40
f 67/72/41 68/71/41 100/110/41 99/107/41
f 94/74/42 95/73/42 127/111/42 126/108/42
f 81/35/43 82/75/43 114/112/43 113/109/43
f 68/71/44 69/76/44 101/113/44 100/110/44
f 95/73/45 96/77/45 128/114/45 127/111/45
f 82/75/46 83/78/46 115/115/46 114/112/46
f 69/76/47 70/79/47 102/116/47 101/113/47
f 96/77/48 65/67/48 97/70/48 128/114/48
f 83/78/49 84/80/49 116/117/49 115/115/49
f 70/79/50 71/81/50 103/118/50 102/116/50
f 84/80/51 85/82/51 117/99/51 116/117/51
f 71/81/52 72/83/52 104/119/52 103/118/52
f 85/82/53 86/84/53 118/100/53 117/99/53
f 72/83/54 73/85/54 105/120/54 104/119/54
f 86/84/55 87/86/55 119/121/55 118/100/55
f 73/85/56 74/87/56 106/122/56 105/120/56
f 87/86/57 88/88/57 120/123/57 119/121/57
f 74/87/58 75/89/58 107/124/58 106/122/58
f 88/88/59 89/90/59 121/125/59 120/123/59
f 75/89/60 76/91/60 108/126/60 107/124/60
f 89/90/61 90/92/61 122/127/61 121/125/61
f 76/91/62 77/93/62 109/128/62 108/126/62
f 90/92/63 91/94/63 123/129/63 122/127/63
f 77/93/64 78/95/64 110/130/64 109/128/64
f 91/94/65 92/96/65 124/104/65 123/129/65
f 78/95/66 79/97/66 111/106/66 110/130/66
f 152/131/67 153/132/67 185/133/67 184/134/67
f 104/119/1 105/120/1 137/135/1 136/136/1
f 118/100/1 119/121/1 151/137/1 150/101/1
f 105/120/1 106/122/1 138/138/1 137/135/1
f 119/121/1 120/123/1 152/131/1 151/137/1
f 106/122/1 107/124/1 139/139/1 138/138/1
f 120/123/1 121/125/1 153/132/1 152/131/1
f 107/124/1 108/126/1 140/140/1 139/139/1
f 121/125/1 122/127/1 154/141/1 153/132/1
f 108/126/1 109/128/1 141/142/1 140/140/1
f 122/127/1 123/129/1 155/143/1 154/141/1
f 109/128/1 110/130/1 142/144/1 141/142/1
f 123/129/1 124/104/1 156/145/1 155/143/1
f 110/130/1 111/106/1 143/146/1 142/144/1
f 97/70/1 98/69/1 130/147/1 129/148/1
f 124/104/1 125/103/1 157/149/1 156/145/1
f 111/106/1 112/105/1 144/150/1 143/146/1
f 98/69/1 99/107/1 131/151/1 130/147/1
f 125/103/1 126/108/1 158/152/1 157/149/1
f 112/105/1 113/109/1 145/153/1 144/150/1
f 99/107/1 100/110/1 132/154/1 131/151/1
f 126/108/1 127/111/1 159/155/1 158/152/1
f 113/109/1 114/112/1 146/156/1 145/153/1
f 100/110/1 101/113/1 133/157/1 132/154/1
f 127/111/1 128/114/1 160/158/1 159/155/1
f 114/112/1 115/115/1 147/159/1 146/156/1
f 101/113/1 102/116/1 134/160/1 133/157/1
f 128/114/1 97/70/1 129/148/1 160/158/1
f 115/115/1 116/117/1 148/161/1 147/159/1
f 102/116/1 103/118/1 135/162/1 134/160/1
f 116/117/1 117/99/1 149/102/1 148/161/1
f 103/118/1 104/119/1 136/136/1 135/162/1
f 162/163/2 163/164/2 164/165/2 165/166/2 166/167/2 167/168/2 168/169/2 169/170/2 170/171/2 171/172/2 172/173/2 173/174/2 174/175/2 175/176/2 176/177/2 177/178/2 178/179/2 179/180/2 180/181/2 181/182/2 182/183/2 183/184/2 184/134/2 185/133/2 186/185/2 187/186/2 188/187/2 189/188/2 190/189/2 191/190/2 192/191/2 161/192/2
f 139/139/68 140/140/68 172/173/68 171/172/68
f 153/132/69 154/141/69 186/185/69 185/133/69
f 140/140/70 141/142/70 173/174/70 172/173/70
f 154/141/71 155/143/71 187/186/71 186/185/71
f 141/142/72 142/144/72 174/175/72 173/174/72
f 155/143/73 156/145/73 188/187/73 187/186/73
f 142/144/74 143/146/74 175/176/74 174/175/74
f 129/148/75 130/147/75 162/163/75 161/192/75
f 156/145/76 157/149/76 189/188/76 188/187/76
f 143/146/77 144/150/77 176/177/77 175/176/77
f 130/147/78 131/151/78 163/164/78 162/163/78
f 157/149/79 158/152/79 190/189/79 189/188/79
f 144/150/80 145/153/80 177/178/80 176/177/80
f 131/151/81 132/154/81 164/165/81 163/164/81
f 158/152/82 159/155/82 191/190/82 190/189/82
f 145/153/83 146/156/83 178/179/83 177/178/83
f 132/154/84 133/157/84 165/166/84 164/165/84
f 159/155/85 160/158/85 192/191/85 191/190/85
f 146/156/86 147/159/86 179/180/86 178/179/86
f 133/157/87 134/160/87 166/167/87 165/166/87
f 160/158/88 129/148/88 161/192/88 192/191/88
f 147/159/89 148/161/89 180/181/89 179/180/89
f 134/160/90 135/162/90 167/168/90 166/167/90
f 148/161/91 149/102/91 181/182/91 180/181/91
f 135/162/92 136/136/92 168/169/92 167/168/92
f 149/102/93 150/101/93 182/183/93 181/182/93
f 136/136/94 137/135/94 169/170/94 168/169/94
f 150/101/95 151/137/95 183/184/95 182/183/95
f 137/135/96 138/138/96 170/171/96 169/170/96
f 151/137/97 152/131/97 184/134/97 183/184/97
f 138/138/98 139/139/98 171/172/98 170/171/98
